<mxfile host="Electron" modified="2023-07-13T10:06:34.711Z" agent="Mozilla/5.0 (Macintosh; Intel Mac OS X 10_15_7) AppleWebKit/537.36 (KHTML, like Gecko) draw.io/21.2.1 Chrome/112.0.5615.87 Electron/24.1.2 Safari/537.36" etag="NjuLOnQqAxCWJLdfsADQ" version="21.2.1" type="device">
  <diagram name="Page-1" id="TBJS4o3KPZ0XCSUxQ0L1">
    <mxGraphModel dx="4714" dy="792" grid="1" gridSize="10" guides="1" tooltips="1" connect="1" arrows="1" fold="1" page="1" pageScale="1" pageWidth="1169" pageHeight="827" math="0" shadow="0">
      <root>
        <mxCell id="0" />
        <mxCell id="1" parent="0" />
        <mxCell id="oG1cFY4iQdA7e23HUp6_-1" value="Mindmap for papers" style="shape=table;startSize=30;container=1;collapsible=0;childLayout=tableLayout;strokeColor=default;fontSize=16;movable=0;resizable=0;rotatable=0;deletable=0;editable=0;locked=1;connectable=0;" parent="1" vertex="1">
          <mxGeometry width="3503" height="2423" as="geometry" />
        </mxCell>
        <mxCell id="oG1cFY4iQdA7e23HUp6_-2" value="" style="shape=tableRow;horizontal=0;startSize=0;swimlaneHead=0;swimlaneBody=0;strokeColor=inherit;top=0;left=0;bottom=0;right=0;collapsible=0;dropTarget=0;fillColor=none;points=[[0,0.5],[1,0.5]];portConstraint=eastwest;fontSize=16;movable=0;resizable=0;rotatable=0;deletable=0;editable=0;locked=1;connectable=0;" parent="oG1cFY4iQdA7e23HUp6_-1" vertex="1">
          <mxGeometry y="30" width="3503" height="266" as="geometry" />
        </mxCell>
        <mxCell id="oG1cFY4iQdA7e23HUp6_-86" style="shape=partialRectangle;html=1;whiteSpace=wrap;connectable=0;strokeColor=inherit;overflow=hidden;fillColor=none;top=0;left=0;bottom=0;right=0;pointerEvents=1;fontSize=16;movable=0;resizable=0;rotatable=0;deletable=0;editable=0;locked=1;" parent="oG1cFY4iQdA7e23HUp6_-2" vertex="1">
          <mxGeometry width="389" height="266" as="geometry">
            <mxRectangle width="389" height="266" as="alternateBounds" />
          </mxGeometry>
        </mxCell>
        <mxCell id="oG1cFY4iQdA7e23HUp6_-77" style="shape=partialRectangle;html=1;whiteSpace=wrap;connectable=0;strokeColor=inherit;overflow=hidden;fillColor=none;top=0;left=0;bottom=0;right=0;pointerEvents=1;fontSize=16;movable=0;resizable=0;rotatable=0;deletable=0;editable=0;locked=1;" parent="oG1cFY4iQdA7e23HUp6_-2" vertex="1">
          <mxGeometry x="389" width="389" height="266" as="geometry">
            <mxRectangle width="389" height="266" as="alternateBounds" />
          </mxGeometry>
        </mxCell>
        <mxCell id="oG1cFY4iQdA7e23HUp6_-68" style="shape=partialRectangle;html=1;whiteSpace=wrap;connectable=0;strokeColor=inherit;overflow=hidden;fillColor=none;top=0;left=0;bottom=0;right=0;pointerEvents=1;fontSize=16;movable=0;resizable=0;rotatable=0;deletable=0;editable=0;locked=1;" parent="oG1cFY4iQdA7e23HUp6_-2" vertex="1">
          <mxGeometry x="778" width="389" height="266" as="geometry">
            <mxRectangle width="389" height="266" as="alternateBounds" />
          </mxGeometry>
        </mxCell>
        <mxCell id="oG1cFY4iQdA7e23HUp6_-59" style="shape=partialRectangle;html=1;whiteSpace=wrap;connectable=0;strokeColor=inherit;overflow=hidden;fillColor=none;top=0;left=0;bottom=0;right=0;pointerEvents=1;fontSize=16;movable=0;resizable=0;rotatable=0;deletable=0;editable=0;locked=1;" parent="oG1cFY4iQdA7e23HUp6_-2" vertex="1">
          <mxGeometry x="1167" width="389" height="266" as="geometry">
            <mxRectangle width="389" height="266" as="alternateBounds" />
          </mxGeometry>
        </mxCell>
        <mxCell id="oG1cFY4iQdA7e23HUp6_-50" style="shape=partialRectangle;html=1;whiteSpace=wrap;connectable=0;strokeColor=inherit;overflow=hidden;fillColor=none;top=0;left=0;bottom=0;right=0;pointerEvents=1;fontSize=16;movable=0;resizable=0;rotatable=0;deletable=0;editable=0;locked=1;" parent="oG1cFY4iQdA7e23HUp6_-2" vertex="1">
          <mxGeometry x="1556" width="389" height="266" as="geometry">
            <mxRectangle width="389" height="266" as="alternateBounds" />
          </mxGeometry>
        </mxCell>
        <mxCell id="oG1cFY4iQdA7e23HUp6_-41" style="shape=partialRectangle;html=1;whiteSpace=wrap;connectable=0;strokeColor=inherit;overflow=hidden;fillColor=none;top=0;left=0;bottom=0;right=0;pointerEvents=1;fontSize=16;movable=0;resizable=0;rotatable=0;deletable=0;editable=0;locked=1;" parent="oG1cFY4iQdA7e23HUp6_-2" vertex="1">
          <mxGeometry x="1945" width="389" height="266" as="geometry">
            <mxRectangle width="389" height="266" as="alternateBounds" />
          </mxGeometry>
        </mxCell>
        <mxCell id="oG1cFY4iQdA7e23HUp6_-3" value="" style="shape=partialRectangle;html=1;whiteSpace=wrap;connectable=0;strokeColor=inherit;overflow=hidden;fillColor=none;top=0;left=0;bottom=0;right=0;pointerEvents=1;fontSize=16;movable=0;resizable=0;rotatable=0;deletable=0;editable=0;locked=1;" parent="oG1cFY4iQdA7e23HUp6_-2" vertex="1">
          <mxGeometry x="2334" width="389" height="266" as="geometry">
            <mxRectangle width="389" height="266" as="alternateBounds" />
          </mxGeometry>
        </mxCell>
        <mxCell id="oG1cFY4iQdA7e23HUp6_-4" value="" style="shape=partialRectangle;html=1;whiteSpace=wrap;connectable=0;strokeColor=inherit;overflow=hidden;fillColor=none;top=0;left=0;bottom=0;right=0;pointerEvents=1;fontSize=16;movable=0;resizable=0;rotatable=0;deletable=0;editable=0;locked=1;" parent="oG1cFY4iQdA7e23HUp6_-2" vertex="1">
          <mxGeometry x="2723" width="391" height="266" as="geometry">
            <mxRectangle width="391" height="266" as="alternateBounds" />
          </mxGeometry>
        </mxCell>
        <mxCell id="oG1cFY4iQdA7e23HUp6_-5" value="" style="shape=partialRectangle;html=1;whiteSpace=wrap;connectable=0;strokeColor=inherit;overflow=hidden;fillColor=none;top=0;left=0;bottom=0;right=0;pointerEvents=1;fontSize=16;movable=0;resizable=0;rotatable=0;deletable=0;editable=0;locked=1;" parent="oG1cFY4iQdA7e23HUp6_-2" vertex="1">
          <mxGeometry x="3114" width="389" height="266" as="geometry">
            <mxRectangle width="389" height="266" as="alternateBounds" />
          </mxGeometry>
        </mxCell>
        <mxCell id="oG1cFY4iQdA7e23HUp6_-6" value="" style="shape=tableRow;horizontal=0;startSize=0;swimlaneHead=0;swimlaneBody=0;strokeColor=inherit;top=0;left=0;bottom=0;right=0;collapsible=0;dropTarget=0;fillColor=none;points=[[0,0.5],[1,0.5]];portConstraint=eastwest;fontSize=16;movable=0;resizable=0;rotatable=0;deletable=0;editable=0;locked=1;connectable=0;" parent="oG1cFY4iQdA7e23HUp6_-1" vertex="1">
          <mxGeometry y="296" width="3503" height="265" as="geometry" />
        </mxCell>
        <mxCell id="oG1cFY4iQdA7e23HUp6_-87" style="shape=partialRectangle;html=1;whiteSpace=wrap;connectable=0;strokeColor=inherit;overflow=hidden;fillColor=none;top=0;left=0;bottom=0;right=0;pointerEvents=1;fontSize=16;movable=0;resizable=0;rotatable=0;deletable=0;editable=0;locked=1;" parent="oG1cFY4iQdA7e23HUp6_-6" vertex="1">
          <mxGeometry width="389" height="265" as="geometry">
            <mxRectangle width="389" height="265" as="alternateBounds" />
          </mxGeometry>
        </mxCell>
        <mxCell id="oG1cFY4iQdA7e23HUp6_-78" style="shape=partialRectangle;html=1;whiteSpace=wrap;connectable=0;strokeColor=inherit;overflow=hidden;fillColor=none;top=0;left=0;bottom=0;right=0;pointerEvents=1;fontSize=16;movable=0;resizable=0;rotatable=0;deletable=0;editable=0;locked=1;" parent="oG1cFY4iQdA7e23HUp6_-6" vertex="1">
          <mxGeometry x="389" width="389" height="265" as="geometry">
            <mxRectangle width="389" height="265" as="alternateBounds" />
          </mxGeometry>
        </mxCell>
        <mxCell id="oG1cFY4iQdA7e23HUp6_-69" style="shape=partialRectangle;html=1;whiteSpace=wrap;connectable=0;strokeColor=inherit;overflow=hidden;fillColor=none;top=0;left=0;bottom=0;right=0;pointerEvents=1;fontSize=16;movable=0;resizable=0;rotatable=0;deletable=0;editable=0;locked=1;" parent="oG1cFY4iQdA7e23HUp6_-6" vertex="1">
          <mxGeometry x="778" width="389" height="265" as="geometry">
            <mxRectangle width="389" height="265" as="alternateBounds" />
          </mxGeometry>
        </mxCell>
        <mxCell id="oG1cFY4iQdA7e23HUp6_-60" style="shape=partialRectangle;html=1;whiteSpace=wrap;connectable=0;strokeColor=inherit;overflow=hidden;fillColor=none;top=0;left=0;bottom=0;right=0;pointerEvents=1;fontSize=16;movable=0;resizable=0;rotatable=0;deletable=0;editable=0;locked=1;" parent="oG1cFY4iQdA7e23HUp6_-6" vertex="1">
          <mxGeometry x="1167" width="389" height="265" as="geometry">
            <mxRectangle width="389" height="265" as="alternateBounds" />
          </mxGeometry>
        </mxCell>
        <mxCell id="oG1cFY4iQdA7e23HUp6_-51" style="shape=partialRectangle;html=1;whiteSpace=wrap;connectable=0;strokeColor=inherit;overflow=hidden;fillColor=none;top=0;left=0;bottom=0;right=0;pointerEvents=1;fontSize=16;movable=0;resizable=0;rotatable=0;deletable=0;editable=0;locked=1;" parent="oG1cFY4iQdA7e23HUp6_-6" vertex="1">
          <mxGeometry x="1556" width="389" height="265" as="geometry">
            <mxRectangle width="389" height="265" as="alternateBounds" />
          </mxGeometry>
        </mxCell>
        <mxCell id="oG1cFY4iQdA7e23HUp6_-42" style="shape=partialRectangle;html=1;whiteSpace=wrap;connectable=0;strokeColor=inherit;overflow=hidden;fillColor=none;top=0;left=0;bottom=0;right=0;pointerEvents=1;fontSize=16;movable=0;resizable=0;rotatable=0;deletable=0;editable=0;locked=1;" parent="oG1cFY4iQdA7e23HUp6_-6" vertex="1">
          <mxGeometry x="1945" width="389" height="265" as="geometry">
            <mxRectangle width="389" height="265" as="alternateBounds" />
          </mxGeometry>
        </mxCell>
        <mxCell id="oG1cFY4iQdA7e23HUp6_-7" value="" style="shape=partialRectangle;html=1;whiteSpace=wrap;connectable=0;strokeColor=inherit;overflow=hidden;fillColor=none;top=0;left=0;bottom=0;right=0;pointerEvents=1;fontSize=16;movable=0;resizable=0;rotatable=0;deletable=0;editable=0;locked=1;" parent="oG1cFY4iQdA7e23HUp6_-6" vertex="1">
          <mxGeometry x="2334" width="389" height="265" as="geometry">
            <mxRectangle width="389" height="265" as="alternateBounds" />
          </mxGeometry>
        </mxCell>
        <mxCell id="oG1cFY4iQdA7e23HUp6_-8" value="" style="shape=partialRectangle;html=1;whiteSpace=wrap;connectable=0;strokeColor=inherit;overflow=hidden;fillColor=none;top=0;left=0;bottom=0;right=0;pointerEvents=1;fontSize=16;movable=0;resizable=0;rotatable=0;deletable=0;editable=0;locked=1;" parent="oG1cFY4iQdA7e23HUp6_-6" vertex="1">
          <mxGeometry x="2723" width="391" height="265" as="geometry">
            <mxRectangle width="391" height="265" as="alternateBounds" />
          </mxGeometry>
        </mxCell>
        <mxCell id="oG1cFY4iQdA7e23HUp6_-9" value="" style="shape=partialRectangle;html=1;whiteSpace=wrap;connectable=0;strokeColor=inherit;overflow=hidden;fillColor=none;top=0;left=0;bottom=0;right=0;pointerEvents=1;fontSize=16;movable=0;resizable=0;rotatable=0;deletable=0;editable=0;locked=1;" parent="oG1cFY4iQdA7e23HUp6_-6" vertex="1">
          <mxGeometry x="3114" width="389" height="265" as="geometry">
            <mxRectangle width="389" height="265" as="alternateBounds" />
          </mxGeometry>
        </mxCell>
        <mxCell id="oG1cFY4iQdA7e23HUp6_-10" value="" style="shape=tableRow;horizontal=0;startSize=0;swimlaneHead=0;swimlaneBody=0;strokeColor=inherit;top=0;left=0;bottom=0;right=0;collapsible=0;dropTarget=0;fillColor=none;points=[[0,0.5],[1,0.5]];portConstraint=eastwest;fontSize=16;movable=0;resizable=0;rotatable=0;deletable=0;editable=0;locked=1;connectable=0;" parent="oG1cFY4iQdA7e23HUp6_-1" vertex="1">
          <mxGeometry y="561" width="3503" height="266" as="geometry" />
        </mxCell>
        <mxCell id="oG1cFY4iQdA7e23HUp6_-88" style="shape=partialRectangle;html=1;whiteSpace=wrap;connectable=0;strokeColor=inherit;overflow=hidden;fillColor=none;top=0;left=0;bottom=0;right=0;pointerEvents=1;fontSize=16;movable=0;resizable=0;rotatable=0;deletable=0;editable=0;locked=1;" parent="oG1cFY4iQdA7e23HUp6_-10" vertex="1">
          <mxGeometry width="389" height="266" as="geometry">
            <mxRectangle width="389" height="266" as="alternateBounds" />
          </mxGeometry>
        </mxCell>
        <mxCell id="oG1cFY4iQdA7e23HUp6_-79" style="shape=partialRectangle;html=1;whiteSpace=wrap;connectable=0;strokeColor=inherit;overflow=hidden;fillColor=none;top=0;left=0;bottom=0;right=0;pointerEvents=1;fontSize=16;movable=0;resizable=0;rotatable=0;deletable=0;editable=0;locked=1;" parent="oG1cFY4iQdA7e23HUp6_-10" vertex="1">
          <mxGeometry x="389" width="389" height="266" as="geometry">
            <mxRectangle width="389" height="266" as="alternateBounds" />
          </mxGeometry>
        </mxCell>
        <mxCell id="oG1cFY4iQdA7e23HUp6_-70" style="shape=partialRectangle;html=1;whiteSpace=wrap;connectable=0;strokeColor=inherit;overflow=hidden;fillColor=none;top=0;left=0;bottom=0;right=0;pointerEvents=1;fontSize=16;movable=0;resizable=0;rotatable=0;deletable=0;editable=0;locked=1;" parent="oG1cFY4iQdA7e23HUp6_-10" vertex="1">
          <mxGeometry x="778" width="389" height="266" as="geometry">
            <mxRectangle width="389" height="266" as="alternateBounds" />
          </mxGeometry>
        </mxCell>
        <mxCell id="oG1cFY4iQdA7e23HUp6_-61" style="shape=partialRectangle;html=1;whiteSpace=wrap;connectable=0;strokeColor=inherit;overflow=hidden;fillColor=none;top=0;left=0;bottom=0;right=0;pointerEvents=1;fontSize=16;movable=0;resizable=0;rotatable=0;deletable=0;editable=0;locked=1;" parent="oG1cFY4iQdA7e23HUp6_-10" vertex="1">
          <mxGeometry x="1167" width="389" height="266" as="geometry">
            <mxRectangle width="389" height="266" as="alternateBounds" />
          </mxGeometry>
        </mxCell>
        <mxCell id="oG1cFY4iQdA7e23HUp6_-52" style="shape=partialRectangle;html=1;whiteSpace=wrap;connectable=0;strokeColor=inherit;overflow=hidden;fillColor=none;top=0;left=0;bottom=0;right=0;pointerEvents=1;fontSize=16;movable=0;resizable=0;rotatable=0;deletable=0;editable=0;locked=1;" parent="oG1cFY4iQdA7e23HUp6_-10" vertex="1">
          <mxGeometry x="1556" width="389" height="266" as="geometry">
            <mxRectangle width="389" height="266" as="alternateBounds" />
          </mxGeometry>
        </mxCell>
        <mxCell id="oG1cFY4iQdA7e23HUp6_-43" style="shape=partialRectangle;html=1;whiteSpace=wrap;connectable=0;strokeColor=inherit;overflow=hidden;fillColor=none;top=0;left=0;bottom=0;right=0;pointerEvents=1;fontSize=16;movable=0;resizable=0;rotatable=0;deletable=0;editable=0;locked=1;" parent="oG1cFY4iQdA7e23HUp6_-10" vertex="1">
          <mxGeometry x="1945" width="389" height="266" as="geometry">
            <mxRectangle width="389" height="266" as="alternateBounds" />
          </mxGeometry>
        </mxCell>
        <mxCell id="oG1cFY4iQdA7e23HUp6_-11" value="" style="shape=partialRectangle;html=1;whiteSpace=wrap;connectable=0;strokeColor=inherit;overflow=hidden;fillColor=none;top=0;left=0;bottom=0;right=0;pointerEvents=1;fontSize=16;movable=0;resizable=0;rotatable=0;deletable=0;editable=0;locked=1;" parent="oG1cFY4iQdA7e23HUp6_-10" vertex="1">
          <mxGeometry x="2334" width="389" height="266" as="geometry">
            <mxRectangle width="389" height="266" as="alternateBounds" />
          </mxGeometry>
        </mxCell>
        <mxCell id="oG1cFY4iQdA7e23HUp6_-12" value="" style="shape=partialRectangle;html=1;whiteSpace=wrap;connectable=0;strokeColor=inherit;overflow=hidden;fillColor=none;top=0;left=0;bottom=0;right=0;pointerEvents=1;fontSize=16;movable=0;resizable=0;rotatable=0;deletable=0;editable=0;locked=1;" parent="oG1cFY4iQdA7e23HUp6_-10" vertex="1">
          <mxGeometry x="2723" width="391" height="266" as="geometry">
            <mxRectangle width="391" height="266" as="alternateBounds" />
          </mxGeometry>
        </mxCell>
        <mxCell id="oG1cFY4iQdA7e23HUp6_-13" value="" style="shape=partialRectangle;html=1;whiteSpace=wrap;connectable=0;strokeColor=inherit;overflow=hidden;fillColor=none;top=0;left=0;bottom=0;right=0;pointerEvents=1;fontSize=16;movable=0;resizable=0;rotatable=0;deletable=0;editable=0;locked=1;" parent="oG1cFY4iQdA7e23HUp6_-10" vertex="1">
          <mxGeometry x="3114" width="389" height="266" as="geometry">
            <mxRectangle width="389" height="266" as="alternateBounds" />
          </mxGeometry>
        </mxCell>
        <mxCell id="oG1cFY4iQdA7e23HUp6_-17" style="shape=tableRow;horizontal=0;startSize=0;swimlaneHead=0;swimlaneBody=0;strokeColor=inherit;top=0;left=0;bottom=0;right=0;collapsible=0;dropTarget=0;fillColor=none;points=[[0,0.5],[1,0.5]];portConstraint=eastwest;fontSize=16;movable=0;resizable=0;rotatable=0;deletable=0;editable=0;locked=1;connectable=0;" parent="oG1cFY4iQdA7e23HUp6_-1" vertex="1">
          <mxGeometry y="827" width="3503" height="266" as="geometry" />
        </mxCell>
        <mxCell id="oG1cFY4iQdA7e23HUp6_-89" style="shape=partialRectangle;html=1;whiteSpace=wrap;connectable=0;strokeColor=inherit;overflow=hidden;fillColor=none;top=0;left=0;bottom=0;right=0;pointerEvents=1;fontSize=16;movable=0;resizable=0;rotatable=0;deletable=0;editable=0;locked=1;" parent="oG1cFY4iQdA7e23HUp6_-17" vertex="1">
          <mxGeometry width="389" height="266" as="geometry">
            <mxRectangle width="389" height="266" as="alternateBounds" />
          </mxGeometry>
        </mxCell>
        <mxCell id="oG1cFY4iQdA7e23HUp6_-80" style="shape=partialRectangle;html=1;whiteSpace=wrap;connectable=0;strokeColor=inherit;overflow=hidden;fillColor=none;top=0;left=0;bottom=0;right=0;pointerEvents=1;fontSize=16;movable=0;resizable=0;rotatable=0;deletable=0;editable=0;locked=1;" parent="oG1cFY4iQdA7e23HUp6_-17" vertex="1">
          <mxGeometry x="389" width="389" height="266" as="geometry">
            <mxRectangle width="389" height="266" as="alternateBounds" />
          </mxGeometry>
        </mxCell>
        <mxCell id="oG1cFY4iQdA7e23HUp6_-71" style="shape=partialRectangle;html=1;whiteSpace=wrap;connectable=0;strokeColor=inherit;overflow=hidden;fillColor=none;top=0;left=0;bottom=0;right=0;pointerEvents=1;fontSize=16;movable=0;resizable=0;rotatable=0;deletable=0;editable=0;locked=1;" parent="oG1cFY4iQdA7e23HUp6_-17" vertex="1">
          <mxGeometry x="778" width="389" height="266" as="geometry">
            <mxRectangle width="389" height="266" as="alternateBounds" />
          </mxGeometry>
        </mxCell>
        <mxCell id="oG1cFY4iQdA7e23HUp6_-62" style="shape=partialRectangle;html=1;whiteSpace=wrap;connectable=0;strokeColor=inherit;overflow=hidden;fillColor=none;top=0;left=0;bottom=0;right=0;pointerEvents=1;fontSize=16;movable=0;resizable=0;rotatable=0;deletable=0;editable=0;locked=1;" parent="oG1cFY4iQdA7e23HUp6_-17" vertex="1">
          <mxGeometry x="1167" width="389" height="266" as="geometry">
            <mxRectangle width="389" height="266" as="alternateBounds" />
          </mxGeometry>
        </mxCell>
        <mxCell id="oG1cFY4iQdA7e23HUp6_-53" style="shape=partialRectangle;html=1;whiteSpace=wrap;connectable=0;strokeColor=inherit;overflow=hidden;fillColor=none;top=0;left=0;bottom=0;right=0;pointerEvents=1;fontSize=16;movable=0;resizable=0;rotatable=0;deletable=0;editable=0;locked=1;" parent="oG1cFY4iQdA7e23HUp6_-17" vertex="1">
          <mxGeometry x="1556" width="389" height="266" as="geometry">
            <mxRectangle width="389" height="266" as="alternateBounds" />
          </mxGeometry>
        </mxCell>
        <mxCell id="oG1cFY4iQdA7e23HUp6_-44" style="shape=partialRectangle;html=1;whiteSpace=wrap;connectable=0;strokeColor=inherit;overflow=hidden;fillColor=none;top=0;left=0;bottom=0;right=0;pointerEvents=1;fontSize=16;movable=0;resizable=0;rotatable=0;deletable=0;editable=0;locked=1;" parent="oG1cFY4iQdA7e23HUp6_-17" vertex="1">
          <mxGeometry x="1945" width="389" height="266" as="geometry">
            <mxRectangle width="389" height="266" as="alternateBounds" />
          </mxGeometry>
        </mxCell>
        <mxCell id="oG1cFY4iQdA7e23HUp6_-18" style="shape=partialRectangle;html=1;whiteSpace=wrap;connectable=0;strokeColor=inherit;overflow=hidden;fillColor=none;top=0;left=0;bottom=0;right=0;pointerEvents=1;fontSize=16;movable=0;resizable=0;rotatable=0;deletable=0;editable=0;locked=1;" parent="oG1cFY4iQdA7e23HUp6_-17" vertex="1">
          <mxGeometry x="2334" width="389" height="266" as="geometry">
            <mxRectangle width="389" height="266" as="alternateBounds" />
          </mxGeometry>
        </mxCell>
        <mxCell id="oG1cFY4iQdA7e23HUp6_-19" style="shape=partialRectangle;html=1;whiteSpace=wrap;connectable=0;strokeColor=inherit;overflow=hidden;fillColor=none;top=0;left=0;bottom=0;right=0;pointerEvents=1;fontSize=16;movable=0;resizable=0;rotatable=0;deletable=0;editable=0;locked=1;" parent="oG1cFY4iQdA7e23HUp6_-17" vertex="1">
          <mxGeometry x="2723" width="391" height="266" as="geometry">
            <mxRectangle width="391" height="266" as="alternateBounds" />
          </mxGeometry>
        </mxCell>
        <mxCell id="oG1cFY4iQdA7e23HUp6_-20" style="shape=partialRectangle;html=1;whiteSpace=wrap;connectable=0;strokeColor=inherit;overflow=hidden;fillColor=none;top=0;left=0;bottom=0;right=0;pointerEvents=1;fontSize=16;movable=0;resizable=0;rotatable=0;deletable=0;editable=0;locked=1;" parent="oG1cFY4iQdA7e23HUp6_-17" vertex="1">
          <mxGeometry x="3114" width="389" height="266" as="geometry">
            <mxRectangle width="389" height="266" as="alternateBounds" />
          </mxGeometry>
        </mxCell>
        <mxCell id="oG1cFY4iQdA7e23HUp6_-21" style="shape=tableRow;horizontal=0;startSize=0;swimlaneHead=0;swimlaneBody=0;strokeColor=inherit;top=0;left=0;bottom=0;right=0;collapsible=0;dropTarget=0;fillColor=none;points=[[0,0.5],[1,0.5]];portConstraint=eastwest;fontSize=16;movable=0;resizable=0;rotatable=0;deletable=0;editable=0;locked=1;connectable=0;" parent="oG1cFY4iQdA7e23HUp6_-1" vertex="1">
          <mxGeometry y="1093" width="3503" height="266" as="geometry" />
        </mxCell>
        <mxCell id="oG1cFY4iQdA7e23HUp6_-90" style="shape=partialRectangle;html=1;whiteSpace=wrap;connectable=0;strokeColor=inherit;overflow=hidden;fillColor=none;top=0;left=0;bottom=0;right=0;pointerEvents=1;fontSize=16;movable=0;resizable=0;rotatable=0;deletable=0;editable=0;locked=1;" parent="oG1cFY4iQdA7e23HUp6_-21" vertex="1">
          <mxGeometry width="389" height="266" as="geometry">
            <mxRectangle width="389" height="266" as="alternateBounds" />
          </mxGeometry>
        </mxCell>
        <mxCell id="oG1cFY4iQdA7e23HUp6_-81" style="shape=partialRectangle;html=1;whiteSpace=wrap;connectable=0;strokeColor=inherit;overflow=hidden;fillColor=none;top=0;left=0;bottom=0;right=0;pointerEvents=1;fontSize=16;movable=0;resizable=0;rotatable=0;deletable=0;editable=0;locked=1;" parent="oG1cFY4iQdA7e23HUp6_-21" vertex="1">
          <mxGeometry x="389" width="389" height="266" as="geometry">
            <mxRectangle width="389" height="266" as="alternateBounds" />
          </mxGeometry>
        </mxCell>
        <mxCell id="oG1cFY4iQdA7e23HUp6_-72" style="shape=partialRectangle;html=1;whiteSpace=wrap;connectable=0;strokeColor=inherit;overflow=hidden;fillColor=none;top=0;left=0;bottom=0;right=0;pointerEvents=1;fontSize=16;movable=0;resizable=0;rotatable=0;deletable=0;editable=0;locked=1;" parent="oG1cFY4iQdA7e23HUp6_-21" vertex="1">
          <mxGeometry x="778" width="389" height="266" as="geometry">
            <mxRectangle width="389" height="266" as="alternateBounds" />
          </mxGeometry>
        </mxCell>
        <mxCell id="oG1cFY4iQdA7e23HUp6_-63" style="shape=partialRectangle;html=1;whiteSpace=wrap;connectable=0;strokeColor=inherit;overflow=hidden;fillColor=none;top=0;left=0;bottom=0;right=0;pointerEvents=1;fontSize=16;movable=0;resizable=0;rotatable=0;deletable=0;editable=0;locked=1;" parent="oG1cFY4iQdA7e23HUp6_-21" vertex="1">
          <mxGeometry x="1167" width="389" height="266" as="geometry">
            <mxRectangle width="389" height="266" as="alternateBounds" />
          </mxGeometry>
        </mxCell>
        <mxCell id="oG1cFY4iQdA7e23HUp6_-54" style="shape=partialRectangle;html=1;whiteSpace=wrap;connectable=0;strokeColor=inherit;overflow=hidden;fillColor=none;top=0;left=0;bottom=0;right=0;pointerEvents=1;fontSize=16;movable=0;resizable=0;rotatable=0;deletable=0;editable=0;locked=1;" parent="oG1cFY4iQdA7e23HUp6_-21" vertex="1">
          <mxGeometry x="1556" width="389" height="266" as="geometry">
            <mxRectangle width="389" height="266" as="alternateBounds" />
          </mxGeometry>
        </mxCell>
        <mxCell id="oG1cFY4iQdA7e23HUp6_-45" style="shape=partialRectangle;html=1;whiteSpace=wrap;connectable=0;strokeColor=inherit;overflow=hidden;fillColor=none;top=0;left=0;bottom=0;right=0;pointerEvents=1;fontSize=16;movable=0;resizable=0;rotatable=0;deletable=0;editable=0;locked=1;" parent="oG1cFY4iQdA7e23HUp6_-21" vertex="1">
          <mxGeometry x="1945" width="389" height="266" as="geometry">
            <mxRectangle width="389" height="266" as="alternateBounds" />
          </mxGeometry>
        </mxCell>
        <mxCell id="oG1cFY4iQdA7e23HUp6_-22" style="shape=partialRectangle;html=1;whiteSpace=wrap;connectable=0;strokeColor=inherit;overflow=hidden;fillColor=none;top=0;left=0;bottom=0;right=0;pointerEvents=1;fontSize=16;movable=0;resizable=0;rotatable=0;deletable=0;editable=0;locked=1;" parent="oG1cFY4iQdA7e23HUp6_-21" vertex="1">
          <mxGeometry x="2334" width="389" height="266" as="geometry">
            <mxRectangle width="389" height="266" as="alternateBounds" />
          </mxGeometry>
        </mxCell>
        <mxCell id="oG1cFY4iQdA7e23HUp6_-23" style="shape=partialRectangle;html=1;whiteSpace=wrap;connectable=0;strokeColor=inherit;overflow=hidden;fillColor=none;top=0;left=0;bottom=0;right=0;pointerEvents=1;fontSize=16;movable=0;resizable=0;rotatable=0;deletable=0;editable=0;locked=1;" parent="oG1cFY4iQdA7e23HUp6_-21" vertex="1">
          <mxGeometry x="2723" width="391" height="266" as="geometry">
            <mxRectangle width="391" height="266" as="alternateBounds" />
          </mxGeometry>
        </mxCell>
        <mxCell id="oG1cFY4iQdA7e23HUp6_-24" style="shape=partialRectangle;html=1;whiteSpace=wrap;connectable=0;strokeColor=inherit;overflow=hidden;fillColor=none;top=0;left=0;bottom=0;right=0;pointerEvents=1;fontSize=16;movable=0;resizable=0;rotatable=0;deletable=0;editable=0;locked=1;" parent="oG1cFY4iQdA7e23HUp6_-21" vertex="1">
          <mxGeometry x="3114" width="389" height="266" as="geometry">
            <mxRectangle width="389" height="266" as="alternateBounds" />
          </mxGeometry>
        </mxCell>
        <mxCell id="oG1cFY4iQdA7e23HUp6_-25" style="shape=tableRow;horizontal=0;startSize=0;swimlaneHead=0;swimlaneBody=0;strokeColor=inherit;top=0;left=0;bottom=0;right=0;collapsible=0;dropTarget=0;fillColor=none;points=[[0,0.5],[1,0.5]];portConstraint=eastwest;fontSize=16;movable=0;resizable=0;rotatable=0;deletable=0;editable=0;locked=1;connectable=0;" parent="oG1cFY4iQdA7e23HUp6_-1" vertex="1">
          <mxGeometry y="1359" width="3503" height="266" as="geometry" />
        </mxCell>
        <mxCell id="oG1cFY4iQdA7e23HUp6_-91" style="shape=partialRectangle;html=1;whiteSpace=wrap;connectable=0;strokeColor=inherit;overflow=hidden;fillColor=none;top=0;left=0;bottom=0;right=0;pointerEvents=1;fontSize=16;movable=0;resizable=0;rotatable=0;deletable=0;editable=0;locked=1;" parent="oG1cFY4iQdA7e23HUp6_-25" vertex="1">
          <mxGeometry width="389" height="266" as="geometry">
            <mxRectangle width="389" height="266" as="alternateBounds" />
          </mxGeometry>
        </mxCell>
        <mxCell id="oG1cFY4iQdA7e23HUp6_-82" style="shape=partialRectangle;html=1;whiteSpace=wrap;connectable=0;strokeColor=inherit;overflow=hidden;fillColor=none;top=0;left=0;bottom=0;right=0;pointerEvents=1;fontSize=16;movable=0;resizable=0;rotatable=0;deletable=0;editable=0;locked=1;" parent="oG1cFY4iQdA7e23HUp6_-25" vertex="1">
          <mxGeometry x="389" width="389" height="266" as="geometry">
            <mxRectangle width="389" height="266" as="alternateBounds" />
          </mxGeometry>
        </mxCell>
        <mxCell id="oG1cFY4iQdA7e23HUp6_-73" style="shape=partialRectangle;html=1;whiteSpace=wrap;connectable=0;strokeColor=inherit;overflow=hidden;fillColor=none;top=0;left=0;bottom=0;right=0;pointerEvents=1;fontSize=16;movable=0;resizable=0;rotatable=0;deletable=0;editable=0;locked=1;" parent="oG1cFY4iQdA7e23HUp6_-25" vertex="1">
          <mxGeometry x="778" width="389" height="266" as="geometry">
            <mxRectangle width="389" height="266" as="alternateBounds" />
          </mxGeometry>
        </mxCell>
        <mxCell id="oG1cFY4iQdA7e23HUp6_-64" style="shape=partialRectangle;html=1;whiteSpace=wrap;connectable=0;strokeColor=inherit;overflow=hidden;fillColor=none;top=0;left=0;bottom=0;right=0;pointerEvents=1;fontSize=16;movable=0;resizable=0;rotatable=0;deletable=0;editable=0;locked=1;" parent="oG1cFY4iQdA7e23HUp6_-25" vertex="1">
          <mxGeometry x="1167" width="389" height="266" as="geometry">
            <mxRectangle width="389" height="266" as="alternateBounds" />
          </mxGeometry>
        </mxCell>
        <mxCell id="oG1cFY4iQdA7e23HUp6_-55" style="shape=partialRectangle;html=1;whiteSpace=wrap;connectable=0;strokeColor=inherit;overflow=hidden;fillColor=none;top=0;left=0;bottom=0;right=0;pointerEvents=1;fontSize=16;movable=0;resizable=0;rotatable=0;deletable=0;editable=0;locked=1;" parent="oG1cFY4iQdA7e23HUp6_-25" vertex="1">
          <mxGeometry x="1556" width="389" height="266" as="geometry">
            <mxRectangle width="389" height="266" as="alternateBounds" />
          </mxGeometry>
        </mxCell>
        <mxCell id="oG1cFY4iQdA7e23HUp6_-46" style="shape=partialRectangle;html=1;whiteSpace=wrap;connectable=0;strokeColor=inherit;overflow=hidden;fillColor=none;top=0;left=0;bottom=0;right=0;pointerEvents=1;fontSize=16;movable=0;resizable=0;rotatable=0;deletable=0;editable=0;locked=1;" parent="oG1cFY4iQdA7e23HUp6_-25" vertex="1">
          <mxGeometry x="1945" width="389" height="266" as="geometry">
            <mxRectangle width="389" height="266" as="alternateBounds" />
          </mxGeometry>
        </mxCell>
        <mxCell id="oG1cFY4iQdA7e23HUp6_-26" style="shape=partialRectangle;html=1;whiteSpace=wrap;connectable=0;strokeColor=inherit;overflow=hidden;fillColor=none;top=0;left=0;bottom=0;right=0;pointerEvents=1;fontSize=16;movable=0;resizable=0;rotatable=0;deletable=0;editable=0;locked=1;" parent="oG1cFY4iQdA7e23HUp6_-25" vertex="1">
          <mxGeometry x="2334" width="389" height="266" as="geometry">
            <mxRectangle width="389" height="266" as="alternateBounds" />
          </mxGeometry>
        </mxCell>
        <mxCell id="oG1cFY4iQdA7e23HUp6_-27" style="shape=partialRectangle;html=1;whiteSpace=wrap;connectable=0;strokeColor=inherit;overflow=hidden;fillColor=none;top=0;left=0;bottom=0;right=0;pointerEvents=1;fontSize=16;movable=0;resizable=0;rotatable=0;deletable=0;editable=0;locked=1;" parent="oG1cFY4iQdA7e23HUp6_-25" vertex="1">
          <mxGeometry x="2723" width="391" height="266" as="geometry">
            <mxRectangle width="391" height="266" as="alternateBounds" />
          </mxGeometry>
        </mxCell>
        <mxCell id="oG1cFY4iQdA7e23HUp6_-28" style="shape=partialRectangle;html=1;whiteSpace=wrap;connectable=0;strokeColor=inherit;overflow=hidden;fillColor=none;top=0;left=0;bottom=0;right=0;pointerEvents=1;fontSize=16;movable=0;resizable=0;rotatable=0;deletable=0;editable=0;locked=1;" parent="oG1cFY4iQdA7e23HUp6_-25" vertex="1">
          <mxGeometry x="3114" width="389" height="266" as="geometry">
            <mxRectangle width="389" height="266" as="alternateBounds" />
          </mxGeometry>
        </mxCell>
        <mxCell id="oG1cFY4iQdA7e23HUp6_-29" style="shape=tableRow;horizontal=0;startSize=0;swimlaneHead=0;swimlaneBody=0;strokeColor=inherit;top=0;left=0;bottom=0;right=0;collapsible=0;dropTarget=0;fillColor=none;points=[[0,0.5],[1,0.5]];portConstraint=eastwest;fontSize=16;movable=0;resizable=0;rotatable=0;deletable=0;editable=0;locked=1;connectable=0;" parent="oG1cFY4iQdA7e23HUp6_-1" vertex="1">
          <mxGeometry y="1625" width="3503" height="266" as="geometry" />
        </mxCell>
        <mxCell id="oG1cFY4iQdA7e23HUp6_-92" style="shape=partialRectangle;html=1;whiteSpace=wrap;connectable=0;strokeColor=inherit;overflow=hidden;fillColor=none;top=0;left=0;bottom=0;right=0;pointerEvents=1;fontSize=16;movable=0;resizable=0;rotatable=0;deletable=0;editable=0;locked=1;" parent="oG1cFY4iQdA7e23HUp6_-29" vertex="1">
          <mxGeometry width="389" height="266" as="geometry">
            <mxRectangle width="389" height="266" as="alternateBounds" />
          </mxGeometry>
        </mxCell>
        <mxCell id="oG1cFY4iQdA7e23HUp6_-83" style="shape=partialRectangle;html=1;whiteSpace=wrap;connectable=0;strokeColor=inherit;overflow=hidden;fillColor=none;top=0;left=0;bottom=0;right=0;pointerEvents=1;fontSize=16;movable=0;resizable=0;rotatable=0;deletable=0;editable=0;locked=1;" parent="oG1cFY4iQdA7e23HUp6_-29" vertex="1">
          <mxGeometry x="389" width="389" height="266" as="geometry">
            <mxRectangle width="389" height="266" as="alternateBounds" />
          </mxGeometry>
        </mxCell>
        <mxCell id="oG1cFY4iQdA7e23HUp6_-74" style="shape=partialRectangle;html=1;whiteSpace=wrap;connectable=0;strokeColor=inherit;overflow=hidden;fillColor=none;top=0;left=0;bottom=0;right=0;pointerEvents=1;fontSize=16;movable=0;resizable=0;rotatable=0;deletable=0;editable=0;locked=1;" parent="oG1cFY4iQdA7e23HUp6_-29" vertex="1">
          <mxGeometry x="778" width="389" height="266" as="geometry">
            <mxRectangle width="389" height="266" as="alternateBounds" />
          </mxGeometry>
        </mxCell>
        <mxCell id="oG1cFY4iQdA7e23HUp6_-65" style="shape=partialRectangle;html=1;whiteSpace=wrap;connectable=0;strokeColor=inherit;overflow=hidden;fillColor=none;top=0;left=0;bottom=0;right=0;pointerEvents=1;fontSize=16;movable=0;resizable=0;rotatable=0;deletable=0;editable=0;locked=1;" parent="oG1cFY4iQdA7e23HUp6_-29" vertex="1">
          <mxGeometry x="1167" width="389" height="266" as="geometry">
            <mxRectangle width="389" height="266" as="alternateBounds" />
          </mxGeometry>
        </mxCell>
        <mxCell id="oG1cFY4iQdA7e23HUp6_-56" style="shape=partialRectangle;html=1;whiteSpace=wrap;connectable=0;strokeColor=inherit;overflow=hidden;fillColor=none;top=0;left=0;bottom=0;right=0;pointerEvents=1;fontSize=16;movable=0;resizable=0;rotatable=0;deletable=0;editable=0;locked=1;" parent="oG1cFY4iQdA7e23HUp6_-29" vertex="1">
          <mxGeometry x="1556" width="389" height="266" as="geometry">
            <mxRectangle width="389" height="266" as="alternateBounds" />
          </mxGeometry>
        </mxCell>
        <mxCell id="oG1cFY4iQdA7e23HUp6_-47" style="shape=partialRectangle;html=1;whiteSpace=wrap;connectable=0;strokeColor=inherit;overflow=hidden;fillColor=none;top=0;left=0;bottom=0;right=0;pointerEvents=1;fontSize=16;movable=0;resizable=0;rotatable=0;deletable=0;editable=0;locked=1;" parent="oG1cFY4iQdA7e23HUp6_-29" vertex="1">
          <mxGeometry x="1945" width="389" height="266" as="geometry">
            <mxRectangle width="389" height="266" as="alternateBounds" />
          </mxGeometry>
        </mxCell>
        <mxCell id="oG1cFY4iQdA7e23HUp6_-30" style="shape=partialRectangle;html=1;whiteSpace=wrap;connectable=0;strokeColor=inherit;overflow=hidden;fillColor=none;top=0;left=0;bottom=0;right=0;pointerEvents=1;fontSize=16;movable=0;resizable=0;rotatable=0;deletable=0;editable=0;locked=1;" parent="oG1cFY4iQdA7e23HUp6_-29" vertex="1">
          <mxGeometry x="2334" width="389" height="266" as="geometry">
            <mxRectangle width="389" height="266" as="alternateBounds" />
          </mxGeometry>
        </mxCell>
        <mxCell id="oG1cFY4iQdA7e23HUp6_-31" style="shape=partialRectangle;html=1;whiteSpace=wrap;connectable=0;strokeColor=inherit;overflow=hidden;fillColor=none;top=0;left=0;bottom=0;right=0;pointerEvents=1;fontSize=16;movable=0;resizable=0;rotatable=0;deletable=0;editable=0;locked=1;" parent="oG1cFY4iQdA7e23HUp6_-29" vertex="1">
          <mxGeometry x="2723" width="391" height="266" as="geometry">
            <mxRectangle width="391" height="266" as="alternateBounds" />
          </mxGeometry>
        </mxCell>
        <mxCell id="oG1cFY4iQdA7e23HUp6_-32" style="shape=partialRectangle;html=1;whiteSpace=wrap;connectable=0;strokeColor=inherit;overflow=hidden;fillColor=none;top=0;left=0;bottom=0;right=0;pointerEvents=1;fontSize=16;movable=0;resizable=0;rotatable=0;deletable=0;editable=0;locked=1;" parent="oG1cFY4iQdA7e23HUp6_-29" vertex="1">
          <mxGeometry x="3114" width="389" height="266" as="geometry">
            <mxRectangle width="389" height="266" as="alternateBounds" />
          </mxGeometry>
        </mxCell>
        <mxCell id="oG1cFY4iQdA7e23HUp6_-33" style="shape=tableRow;horizontal=0;startSize=0;swimlaneHead=0;swimlaneBody=0;strokeColor=inherit;top=0;left=0;bottom=0;right=0;collapsible=0;dropTarget=0;fillColor=none;points=[[0,0.5],[1,0.5]];portConstraint=eastwest;fontSize=16;movable=0;resizable=0;rotatable=0;deletable=0;editable=0;locked=1;connectable=0;" parent="oG1cFY4iQdA7e23HUp6_-1" vertex="1">
          <mxGeometry y="1891" width="3503" height="266" as="geometry" />
        </mxCell>
        <mxCell id="oG1cFY4iQdA7e23HUp6_-93" style="shape=partialRectangle;html=1;whiteSpace=wrap;connectable=0;strokeColor=inherit;overflow=hidden;fillColor=none;top=0;left=0;bottom=0;right=0;pointerEvents=1;fontSize=16;movable=0;resizable=0;rotatable=0;deletable=0;editable=0;locked=1;" parent="oG1cFY4iQdA7e23HUp6_-33" vertex="1">
          <mxGeometry width="389" height="266" as="geometry">
            <mxRectangle width="389" height="266" as="alternateBounds" />
          </mxGeometry>
        </mxCell>
        <mxCell id="oG1cFY4iQdA7e23HUp6_-84" style="shape=partialRectangle;html=1;whiteSpace=wrap;connectable=0;strokeColor=inherit;overflow=hidden;fillColor=none;top=0;left=0;bottom=0;right=0;pointerEvents=1;fontSize=16;movable=0;resizable=0;rotatable=0;deletable=0;editable=0;locked=1;" parent="oG1cFY4iQdA7e23HUp6_-33" vertex="1">
          <mxGeometry x="389" width="389" height="266" as="geometry">
            <mxRectangle width="389" height="266" as="alternateBounds" />
          </mxGeometry>
        </mxCell>
        <mxCell id="oG1cFY4iQdA7e23HUp6_-75" style="shape=partialRectangle;html=1;whiteSpace=wrap;connectable=0;strokeColor=inherit;overflow=hidden;fillColor=none;top=0;left=0;bottom=0;right=0;pointerEvents=1;fontSize=16;movable=0;resizable=0;rotatable=0;deletable=0;editable=0;locked=1;" parent="oG1cFY4iQdA7e23HUp6_-33" vertex="1">
          <mxGeometry x="778" width="389" height="266" as="geometry">
            <mxRectangle width="389" height="266" as="alternateBounds" />
          </mxGeometry>
        </mxCell>
        <mxCell id="oG1cFY4iQdA7e23HUp6_-66" style="shape=partialRectangle;html=1;whiteSpace=wrap;connectable=0;strokeColor=inherit;overflow=hidden;fillColor=none;top=0;left=0;bottom=0;right=0;pointerEvents=1;fontSize=16;movable=0;resizable=0;rotatable=0;deletable=0;editable=0;locked=1;" parent="oG1cFY4iQdA7e23HUp6_-33" vertex="1">
          <mxGeometry x="1167" width="389" height="266" as="geometry">
            <mxRectangle width="389" height="266" as="alternateBounds" />
          </mxGeometry>
        </mxCell>
        <mxCell id="oG1cFY4iQdA7e23HUp6_-57" style="shape=partialRectangle;html=1;whiteSpace=wrap;connectable=0;strokeColor=inherit;overflow=hidden;fillColor=none;top=0;left=0;bottom=0;right=0;pointerEvents=1;fontSize=16;movable=0;resizable=0;rotatable=0;deletable=0;editable=0;locked=1;" parent="oG1cFY4iQdA7e23HUp6_-33" vertex="1">
          <mxGeometry x="1556" width="389" height="266" as="geometry">
            <mxRectangle width="389" height="266" as="alternateBounds" />
          </mxGeometry>
        </mxCell>
        <mxCell id="oG1cFY4iQdA7e23HUp6_-48" style="shape=partialRectangle;html=1;whiteSpace=wrap;connectable=0;strokeColor=inherit;overflow=hidden;fillColor=none;top=0;left=0;bottom=0;right=0;pointerEvents=1;fontSize=16;movable=0;resizable=0;rotatable=0;deletable=0;editable=0;locked=1;" parent="oG1cFY4iQdA7e23HUp6_-33" vertex="1">
          <mxGeometry x="1945" width="389" height="266" as="geometry">
            <mxRectangle width="389" height="266" as="alternateBounds" />
          </mxGeometry>
        </mxCell>
        <mxCell id="oG1cFY4iQdA7e23HUp6_-34" style="shape=partialRectangle;html=1;whiteSpace=wrap;connectable=0;strokeColor=inherit;overflow=hidden;fillColor=none;top=0;left=0;bottom=0;right=0;pointerEvents=1;fontSize=16;movable=0;resizable=0;rotatable=0;deletable=0;editable=0;locked=1;" parent="oG1cFY4iQdA7e23HUp6_-33" vertex="1">
          <mxGeometry x="2334" width="389" height="266" as="geometry">
            <mxRectangle width="389" height="266" as="alternateBounds" />
          </mxGeometry>
        </mxCell>
        <mxCell id="oG1cFY4iQdA7e23HUp6_-35" style="shape=partialRectangle;html=1;whiteSpace=wrap;connectable=0;strokeColor=inherit;overflow=hidden;fillColor=none;top=0;left=0;bottom=0;right=0;pointerEvents=1;fontSize=16;movable=0;resizable=0;rotatable=0;deletable=0;editable=0;locked=1;" parent="oG1cFY4iQdA7e23HUp6_-33" vertex="1">
          <mxGeometry x="2723" width="391" height="266" as="geometry">
            <mxRectangle width="391" height="266" as="alternateBounds" />
          </mxGeometry>
        </mxCell>
        <mxCell id="oG1cFY4iQdA7e23HUp6_-36" style="shape=partialRectangle;html=1;whiteSpace=wrap;connectable=0;strokeColor=inherit;overflow=hidden;fillColor=none;top=0;left=0;bottom=0;right=0;pointerEvents=1;fontSize=16;movable=0;resizable=0;rotatable=0;deletable=0;editable=0;locked=1;" parent="oG1cFY4iQdA7e23HUp6_-33" vertex="1">
          <mxGeometry x="3114" width="389" height="266" as="geometry">
            <mxRectangle width="389" height="266" as="alternateBounds" />
          </mxGeometry>
        </mxCell>
        <mxCell id="oG1cFY4iQdA7e23HUp6_-37" style="shape=tableRow;horizontal=0;startSize=0;swimlaneHead=0;swimlaneBody=0;strokeColor=inherit;top=0;left=0;bottom=0;right=0;collapsible=0;dropTarget=0;fillColor=none;points=[[0,0.5],[1,0.5]];portConstraint=eastwest;fontSize=16;movable=0;resizable=0;rotatable=0;deletable=0;editable=0;locked=1;connectable=0;" parent="oG1cFY4iQdA7e23HUp6_-1" vertex="1">
          <mxGeometry y="2157" width="3503" height="266" as="geometry" />
        </mxCell>
        <mxCell id="oG1cFY4iQdA7e23HUp6_-94" style="shape=partialRectangle;html=1;whiteSpace=wrap;connectable=0;strokeColor=inherit;overflow=hidden;fillColor=none;top=0;left=0;bottom=0;right=0;pointerEvents=1;fontSize=16;movable=0;resizable=0;rotatable=0;deletable=0;editable=0;locked=1;" parent="oG1cFY4iQdA7e23HUp6_-37" vertex="1">
          <mxGeometry width="389" height="266" as="geometry">
            <mxRectangle width="389" height="266" as="alternateBounds" />
          </mxGeometry>
        </mxCell>
        <mxCell id="oG1cFY4iQdA7e23HUp6_-85" style="shape=partialRectangle;html=1;whiteSpace=wrap;connectable=0;strokeColor=inherit;overflow=hidden;fillColor=none;top=0;left=0;bottom=0;right=0;pointerEvents=1;fontSize=16;movable=0;resizable=0;rotatable=0;deletable=0;editable=0;locked=1;" parent="oG1cFY4iQdA7e23HUp6_-37" vertex="1">
          <mxGeometry x="389" width="389" height="266" as="geometry">
            <mxRectangle width="389" height="266" as="alternateBounds" />
          </mxGeometry>
        </mxCell>
        <mxCell id="oG1cFY4iQdA7e23HUp6_-76" style="shape=partialRectangle;html=1;whiteSpace=wrap;connectable=0;strokeColor=inherit;overflow=hidden;fillColor=none;top=0;left=0;bottom=0;right=0;pointerEvents=1;fontSize=16;movable=0;resizable=0;rotatable=0;deletable=0;editable=0;locked=1;" parent="oG1cFY4iQdA7e23HUp6_-37" vertex="1">
          <mxGeometry x="778" width="389" height="266" as="geometry">
            <mxRectangle width="389" height="266" as="alternateBounds" />
          </mxGeometry>
        </mxCell>
        <mxCell id="oG1cFY4iQdA7e23HUp6_-67" style="shape=partialRectangle;html=1;whiteSpace=wrap;connectable=0;strokeColor=inherit;overflow=hidden;fillColor=none;top=0;left=0;bottom=0;right=0;pointerEvents=1;fontSize=16;movable=0;resizable=0;rotatable=0;deletable=0;editable=0;locked=1;" parent="oG1cFY4iQdA7e23HUp6_-37" vertex="1">
          <mxGeometry x="1167" width="389" height="266" as="geometry">
            <mxRectangle width="389" height="266" as="alternateBounds" />
          </mxGeometry>
        </mxCell>
        <mxCell id="oG1cFY4iQdA7e23HUp6_-58" style="shape=partialRectangle;html=1;whiteSpace=wrap;connectable=0;strokeColor=inherit;overflow=hidden;fillColor=none;top=0;left=0;bottom=0;right=0;pointerEvents=1;fontSize=16;movable=0;resizable=0;rotatable=0;deletable=0;editable=0;locked=1;" parent="oG1cFY4iQdA7e23HUp6_-37" vertex="1">
          <mxGeometry x="1556" width="389" height="266" as="geometry">
            <mxRectangle width="389" height="266" as="alternateBounds" />
          </mxGeometry>
        </mxCell>
        <mxCell id="oG1cFY4iQdA7e23HUp6_-49" style="shape=partialRectangle;html=1;whiteSpace=wrap;connectable=0;strokeColor=inherit;overflow=hidden;fillColor=none;top=0;left=0;bottom=0;right=0;pointerEvents=1;fontSize=16;movable=0;resizable=0;rotatable=0;deletable=0;editable=0;locked=1;" parent="oG1cFY4iQdA7e23HUp6_-37" vertex="1">
          <mxGeometry x="1945" width="389" height="266" as="geometry">
            <mxRectangle width="389" height="266" as="alternateBounds" />
          </mxGeometry>
        </mxCell>
        <mxCell id="oG1cFY4iQdA7e23HUp6_-38" style="shape=partialRectangle;html=1;whiteSpace=wrap;connectable=0;strokeColor=inherit;overflow=hidden;fillColor=none;top=0;left=0;bottom=0;right=0;pointerEvents=1;fontSize=16;movable=0;resizable=0;rotatable=0;deletable=0;editable=0;locked=1;" parent="oG1cFY4iQdA7e23HUp6_-37" vertex="1">
          <mxGeometry x="2334" width="389" height="266" as="geometry">
            <mxRectangle width="389" height="266" as="alternateBounds" />
          </mxGeometry>
        </mxCell>
        <mxCell id="oG1cFY4iQdA7e23HUp6_-39" style="shape=partialRectangle;html=1;whiteSpace=wrap;connectable=0;strokeColor=inherit;overflow=hidden;fillColor=none;top=0;left=0;bottom=0;right=0;pointerEvents=1;fontSize=16;movable=0;resizable=0;rotatable=0;deletable=0;editable=0;locked=1;" parent="oG1cFY4iQdA7e23HUp6_-37" vertex="1">
          <mxGeometry x="2723" width="391" height="266" as="geometry">
            <mxRectangle width="391" height="266" as="alternateBounds" />
          </mxGeometry>
        </mxCell>
        <mxCell id="oG1cFY4iQdA7e23HUp6_-40" style="shape=partialRectangle;html=1;whiteSpace=wrap;connectable=0;strokeColor=inherit;overflow=hidden;fillColor=none;top=0;left=0;bottom=0;right=0;pointerEvents=1;fontSize=16;movable=0;resizable=0;rotatable=0;deletable=0;editable=0;locked=1;" parent="oG1cFY4iQdA7e23HUp6_-37" vertex="1">
          <mxGeometry x="3114" width="389" height="266" as="geometry">
            <mxRectangle width="389" height="266" as="alternateBounds" />
          </mxGeometry>
        </mxCell>
        <mxCell id="oG1cFY4iQdA7e23HUp6_-95" value="&lt;font style=&quot;font-size: 12px;&quot;&gt;wos_88&lt;/font&gt;" style="text;strokeColor=none;fillColor=none;html=1;fontSize=24;fontStyle=1;verticalAlign=middle;align=center;movable=0;resizable=0;rotatable=0;deletable=0;editable=0;locked=1;connectable=0;" parent="1" vertex="1">
          <mxGeometry y="30" width="80" height="20" as="geometry" />
        </mxCell>
        <mxCell id="oG1cFY4iQdA7e23HUp6_-96" value="&lt;font style=&quot;font-size: 12px;&quot;&gt;wos_88&lt;/font&gt;" style="text;strokeColor=none;fillColor=none;html=1;fontSize=24;fontStyle=1;verticalAlign=middle;align=center;movable=0;resizable=0;rotatable=0;deletable=0;editable=0;locked=1;connectable=0;" parent="1" vertex="1">
          <mxGeometry x="390" y="30" width="80" height="20" as="geometry" />
        </mxCell>
        <mxCell id="oG1cFY4iQdA7e23HUp6_-97" value="&lt;font style=&quot;font-size: 12px;&quot;&gt;wos_88&lt;/font&gt;" style="text;strokeColor=none;fillColor=none;html=1;fontSize=24;fontStyle=1;verticalAlign=middle;align=center;movable=0;resizable=0;rotatable=0;deletable=0;editable=0;locked=1;connectable=0;" parent="1" vertex="1">
          <mxGeometry x="778" y="30" width="80" height="20" as="geometry" />
        </mxCell>
        <mxCell id="oG1cFY4iQdA7e23HUp6_-98" value="&lt;font style=&quot;font-size: 12px;&quot;&gt;wos_88&lt;/font&gt;" style="text;strokeColor=none;fillColor=none;html=1;fontSize=24;fontStyle=1;verticalAlign=middle;align=center;movable=0;resizable=0;rotatable=0;deletable=0;editable=0;locked=1;connectable=0;" parent="1" vertex="1">
          <mxGeometry x="1167" y="30" width="80" height="20" as="geometry" />
        </mxCell>
        <mxCell id="oG1cFY4iQdA7e23HUp6_-99" value="&lt;font style=&quot;font-size: 12px;&quot;&gt;wos_88&lt;/font&gt;" style="text;strokeColor=none;fillColor=none;html=1;fontSize=24;fontStyle=1;verticalAlign=middle;align=center;movable=0;resizable=0;rotatable=0;deletable=0;editable=0;locked=1;connectable=0;" parent="1" vertex="1">
          <mxGeometry x="1556" y="30" width="80" height="20" as="geometry" />
        </mxCell>
        <mxCell id="oG1cFY4iQdA7e23HUp6_-100" value="&lt;font style=&quot;font-size: 12px;&quot;&gt;wos_88&lt;/font&gt;" style="text;strokeColor=none;fillColor=none;html=1;fontSize=24;fontStyle=1;verticalAlign=middle;align=center;movable=0;resizable=0;rotatable=0;deletable=0;editable=0;locked=1;connectable=0;" parent="1" vertex="1">
          <mxGeometry x="1945" y="30" width="80" height="20" as="geometry" />
        </mxCell>
        <mxCell id="oG1cFY4iQdA7e23HUp6_-101" value="&lt;font style=&quot;font-size: 12px;&quot;&gt;wos_88&lt;/font&gt;" style="text;strokeColor=none;fillColor=none;html=1;fontSize=24;fontStyle=1;verticalAlign=middle;align=center;movable=0;resizable=0;rotatable=0;deletable=0;editable=0;locked=1;connectable=0;" parent="1" vertex="1">
          <mxGeometry x="2334" y="30" width="80" height="20" as="geometry" />
        </mxCell>
        <mxCell id="oG1cFY4iQdA7e23HUp6_-102" value="&lt;font style=&quot;font-size: 12px;&quot;&gt;wos_88&lt;/font&gt;" style="text;strokeColor=none;fillColor=none;html=1;fontSize=24;fontStyle=1;verticalAlign=middle;align=center;movable=0;resizable=0;rotatable=0;deletable=0;editable=0;locked=1;connectable=0;" parent="1" vertex="1">
          <mxGeometry x="3114" y="30" width="80" height="20" as="geometry" />
        </mxCell>
        <mxCell id="oG1cFY4iQdA7e23HUp6_-103" value="&lt;font style=&quot;font-size: 12px;&quot;&gt;wos_88&lt;/font&gt;" style="text;strokeColor=none;fillColor=none;html=1;fontSize=24;fontStyle=1;verticalAlign=middle;align=center;movable=0;resizable=0;rotatable=0;deletable=0;editable=0;locked=1;connectable=0;" parent="1" vertex="1">
          <mxGeometry x="2723" y="30" width="80" height="20" as="geometry" />
        </mxCell>
        <mxCell id="oG1cFY4iQdA7e23HUp6_-104" value="&lt;font style=&quot;font-size: 12px;&quot;&gt;wos_88&lt;/font&gt;" style="text;strokeColor=none;fillColor=none;html=1;fontSize=24;fontStyle=1;verticalAlign=middle;align=center;movable=0;resizable=0;rotatable=0;deletable=0;editable=0;locked=1;connectable=0;" parent="1" vertex="1">
          <mxGeometry y="296" width="80" height="20" as="geometry" />
        </mxCell>
        <mxCell id="oG1cFY4iQdA7e23HUp6_-105" value="&lt;font style=&quot;font-size: 12px;&quot;&gt;wos_88&lt;/font&gt;" style="text;strokeColor=none;fillColor=none;html=1;fontSize=24;fontStyle=1;verticalAlign=middle;align=center;movable=0;resizable=0;rotatable=0;deletable=0;editable=0;locked=1;connectable=0;" parent="1" vertex="1">
          <mxGeometry x="390" y="296" width="80" height="20" as="geometry" />
        </mxCell>
        <mxCell id="oG1cFY4iQdA7e23HUp6_-106" value="&lt;font style=&quot;font-size: 12px;&quot;&gt;wos_88&lt;/font&gt;" style="text;strokeColor=none;fillColor=none;html=1;fontSize=24;fontStyle=1;verticalAlign=middle;align=center;movable=0;resizable=0;rotatable=0;deletable=0;editable=0;locked=1;connectable=0;" parent="1" vertex="1">
          <mxGeometry x="778" y="296" width="80" height="20" as="geometry" />
        </mxCell>
        <mxCell id="oG1cFY4iQdA7e23HUp6_-107" value="&lt;font style=&quot;font-size: 12px;&quot;&gt;wos_88&lt;/font&gt;" style="text;strokeColor=none;fillColor=none;html=1;fontSize=24;fontStyle=1;verticalAlign=middle;align=center;movable=0;resizable=0;rotatable=0;deletable=0;editable=0;locked=1;connectable=0;" parent="1" vertex="1">
          <mxGeometry x="1167" y="296" width="80" height="20" as="geometry" />
        </mxCell>
        <mxCell id="oG1cFY4iQdA7e23HUp6_-108" value="&lt;font style=&quot;font-size: 12px;&quot;&gt;wos_88&lt;/font&gt;" style="text;strokeColor=none;fillColor=none;html=1;fontSize=24;fontStyle=1;verticalAlign=middle;align=center;movable=0;resizable=0;rotatable=0;deletable=0;editable=0;locked=1;connectable=0;" parent="1" vertex="1">
          <mxGeometry x="1556" y="296" width="80" height="20" as="geometry" />
        </mxCell>
        <mxCell id="oG1cFY4iQdA7e23HUp6_-109" value="&lt;font style=&quot;font-size: 12px;&quot;&gt;wos_88&lt;/font&gt;" style="text;strokeColor=none;fillColor=none;html=1;fontSize=24;fontStyle=1;verticalAlign=middle;align=center;movable=0;resizable=0;rotatable=0;deletable=0;editable=0;locked=1;connectable=0;" parent="1" vertex="1">
          <mxGeometry x="1945" y="296" width="80" height="20" as="geometry" />
        </mxCell>
        <mxCell id="oG1cFY4iQdA7e23HUp6_-110" value="&lt;font style=&quot;font-size: 12px;&quot;&gt;wos_88&lt;/font&gt;" style="text;strokeColor=none;fillColor=none;html=1;fontSize=24;fontStyle=1;verticalAlign=middle;align=center;movable=0;resizable=0;rotatable=0;deletable=0;editable=0;locked=1;connectable=0;" parent="1" vertex="1">
          <mxGeometry x="2334" y="296" width="80" height="20" as="geometry" />
        </mxCell>
        <mxCell id="oG1cFY4iQdA7e23HUp6_-111" value="&lt;font style=&quot;font-size: 12px;&quot;&gt;wos_88&lt;/font&gt;" style="text;strokeColor=none;fillColor=none;html=1;fontSize=24;fontStyle=1;verticalAlign=middle;align=center;movable=0;resizable=0;rotatable=0;deletable=0;editable=0;locked=1;connectable=0;" parent="1" vertex="1">
          <mxGeometry x="3114" y="296" width="80" height="20" as="geometry" />
        </mxCell>
        <mxCell id="oG1cFY4iQdA7e23HUp6_-112" value="&lt;font style=&quot;font-size: 12px;&quot;&gt;wos_88&lt;/font&gt;" style="text;strokeColor=none;fillColor=none;html=1;fontSize=24;fontStyle=1;verticalAlign=middle;align=center;movable=0;resizable=0;rotatable=0;deletable=0;editable=0;locked=1;connectable=0;" parent="1" vertex="1">
          <mxGeometry x="2723" y="296" width="80" height="20" as="geometry" />
        </mxCell>
        <mxCell id="oG1cFY4iQdA7e23HUp6_-113" value="&lt;font style=&quot;font-size: 12px;&quot;&gt;wos_88&lt;/font&gt;" style="text;strokeColor=none;fillColor=none;html=1;fontSize=24;fontStyle=1;verticalAlign=middle;align=center;movable=0;resizable=0;rotatable=0;deletable=0;editable=0;locked=1;connectable=0;" parent="1" vertex="1">
          <mxGeometry y="561" width="80" height="20" as="geometry" />
        </mxCell>
        <mxCell id="oG1cFY4iQdA7e23HUp6_-114" value="&lt;font style=&quot;font-size: 12px;&quot;&gt;wos_88&lt;/font&gt;" style="text;strokeColor=none;fillColor=none;html=1;fontSize=24;fontStyle=1;verticalAlign=middle;align=center;movable=0;resizable=0;rotatable=0;deletable=0;editable=0;locked=1;connectable=0;" parent="1" vertex="1">
          <mxGeometry x="390" y="561" width="80" height="20" as="geometry" />
        </mxCell>
        <mxCell id="oG1cFY4iQdA7e23HUp6_-115" value="&lt;font style=&quot;font-size: 12px;&quot;&gt;wos_88&lt;/font&gt;" style="text;strokeColor=none;fillColor=none;html=1;fontSize=24;fontStyle=1;verticalAlign=middle;align=center;movable=0;resizable=0;rotatable=0;deletable=0;editable=0;locked=1;connectable=0;" parent="1" vertex="1">
          <mxGeometry x="778" y="561" width="80" height="20" as="geometry" />
        </mxCell>
        <mxCell id="oG1cFY4iQdA7e23HUp6_-116" value="&lt;font style=&quot;font-size: 12px;&quot;&gt;wos_88&lt;/font&gt;" style="text;strokeColor=none;fillColor=none;html=1;fontSize=24;fontStyle=1;verticalAlign=middle;align=center;movable=0;resizable=0;rotatable=0;deletable=0;editable=0;locked=1;connectable=0;" parent="1" vertex="1">
          <mxGeometry x="1167" y="561" width="80" height="20" as="geometry" />
        </mxCell>
        <mxCell id="oG1cFY4iQdA7e23HUp6_-117" value="&lt;font style=&quot;font-size: 12px;&quot;&gt;wos_88&lt;/font&gt;" style="text;strokeColor=none;fillColor=none;html=1;fontSize=24;fontStyle=1;verticalAlign=middle;align=center;movable=0;resizable=0;rotatable=0;deletable=0;editable=0;locked=1;connectable=0;" parent="1" vertex="1">
          <mxGeometry x="1556" y="561" width="80" height="20" as="geometry" />
        </mxCell>
        <mxCell id="oG1cFY4iQdA7e23HUp6_-118" value="&lt;font style=&quot;font-size: 12px;&quot;&gt;wos_88&lt;/font&gt;" style="text;strokeColor=none;fillColor=none;html=1;fontSize=24;fontStyle=1;verticalAlign=middle;align=center;movable=0;resizable=0;rotatable=0;deletable=0;editable=0;locked=1;connectable=0;" parent="1" vertex="1">
          <mxGeometry x="1945" y="561" width="80" height="20" as="geometry" />
        </mxCell>
        <mxCell id="oG1cFY4iQdA7e23HUp6_-119" value="&lt;font style=&quot;font-size: 12px;&quot;&gt;wos_88&lt;/font&gt;" style="text;strokeColor=none;fillColor=none;html=1;fontSize=24;fontStyle=1;verticalAlign=middle;align=center;movable=0;resizable=0;rotatable=0;deletable=0;editable=0;locked=1;connectable=0;" parent="1" vertex="1">
          <mxGeometry x="2334" y="561" width="80" height="20" as="geometry" />
        </mxCell>
        <mxCell id="oG1cFY4iQdA7e23HUp6_-120" value="&lt;font style=&quot;font-size: 12px;&quot;&gt;wos_88&lt;/font&gt;" style="text;strokeColor=none;fillColor=none;html=1;fontSize=24;fontStyle=1;verticalAlign=middle;align=center;movable=0;resizable=0;rotatable=0;deletable=0;editable=0;locked=1;connectable=0;" parent="1" vertex="1">
          <mxGeometry x="3114" y="561" width="80" height="20" as="geometry" />
        </mxCell>
        <mxCell id="oG1cFY4iQdA7e23HUp6_-121" value="&lt;font style=&quot;font-size: 12px;&quot;&gt;wos_88&lt;/font&gt;" style="text;strokeColor=none;fillColor=none;html=1;fontSize=24;fontStyle=1;verticalAlign=middle;align=center;movable=0;resizable=0;rotatable=0;deletable=0;editable=0;locked=1;connectable=0;" parent="1" vertex="1">
          <mxGeometry x="2723" y="561" width="80" height="20" as="geometry" />
        </mxCell>
        <mxCell id="oG1cFY4iQdA7e23HUp6_-122" value="&lt;font style=&quot;font-size: 12px;&quot;&gt;wos_88&lt;/font&gt;" style="text;strokeColor=none;fillColor=none;html=1;fontSize=24;fontStyle=1;verticalAlign=middle;align=center;movable=0;resizable=0;rotatable=0;deletable=0;editable=0;locked=1;connectable=0;" parent="1" vertex="1">
          <mxGeometry y="827" width="80" height="20" as="geometry" />
        </mxCell>
        <mxCell id="oG1cFY4iQdA7e23HUp6_-123" value="&lt;font style=&quot;font-size: 12px;&quot;&gt;wos_88&lt;/font&gt;" style="text;strokeColor=none;fillColor=none;html=1;fontSize=24;fontStyle=1;verticalAlign=middle;align=center;movable=0;resizable=0;rotatable=0;deletable=0;editable=0;locked=1;connectable=0;" parent="1" vertex="1">
          <mxGeometry x="390" y="827" width="80" height="20" as="geometry" />
        </mxCell>
        <mxCell id="oG1cFY4iQdA7e23HUp6_-124" value="&lt;font style=&quot;font-size: 12px;&quot;&gt;wos_88&lt;/font&gt;" style="text;strokeColor=none;fillColor=none;html=1;fontSize=24;fontStyle=1;verticalAlign=middle;align=center;movable=0;resizable=0;rotatable=0;deletable=0;editable=0;locked=1;connectable=0;" parent="1" vertex="1">
          <mxGeometry x="778" y="827" width="80" height="20" as="geometry" />
        </mxCell>
        <mxCell id="oG1cFY4iQdA7e23HUp6_-125" value="&lt;font style=&quot;font-size: 12px;&quot;&gt;wos_88&lt;/font&gt;" style="text;strokeColor=none;fillColor=none;html=1;fontSize=24;fontStyle=1;verticalAlign=middle;align=center;movable=0;resizable=0;rotatable=0;deletable=0;editable=0;locked=1;connectable=0;" parent="1" vertex="1">
          <mxGeometry x="1167" y="827" width="80" height="20" as="geometry" />
        </mxCell>
        <mxCell id="oG1cFY4iQdA7e23HUp6_-126" value="&lt;font style=&quot;font-size: 12px;&quot;&gt;wos_88&lt;/font&gt;" style="text;strokeColor=none;fillColor=none;html=1;fontSize=24;fontStyle=1;verticalAlign=middle;align=center;movable=0;resizable=0;rotatable=0;deletable=0;editable=0;locked=1;connectable=0;" parent="1" vertex="1">
          <mxGeometry x="1556" y="827" width="80" height="20" as="geometry" />
        </mxCell>
        <mxCell id="oG1cFY4iQdA7e23HUp6_-127" value="&lt;font style=&quot;font-size: 12px;&quot;&gt;wos_88&lt;/font&gt;" style="text;strokeColor=none;fillColor=none;html=1;fontSize=24;fontStyle=1;verticalAlign=middle;align=center;movable=0;resizable=0;rotatable=0;deletable=0;editable=0;locked=1;connectable=0;" parent="1" vertex="1">
          <mxGeometry x="1945" y="827" width="80" height="20" as="geometry" />
        </mxCell>
        <mxCell id="oG1cFY4iQdA7e23HUp6_-128" value="&lt;font style=&quot;font-size: 12px;&quot;&gt;wos_88&lt;/font&gt;" style="text;strokeColor=none;fillColor=none;html=1;fontSize=24;fontStyle=1;verticalAlign=middle;align=center;movable=0;resizable=0;rotatable=0;deletable=0;editable=0;locked=1;connectable=0;" parent="1" vertex="1">
          <mxGeometry x="2334" y="827" width="80" height="20" as="geometry" />
        </mxCell>
        <mxCell id="oG1cFY4iQdA7e23HUp6_-129" value="&lt;font style=&quot;font-size: 12px;&quot;&gt;wos_88&lt;/font&gt;" style="text;strokeColor=none;fillColor=none;html=1;fontSize=24;fontStyle=1;verticalAlign=middle;align=center;movable=0;resizable=0;rotatable=0;deletable=0;editable=0;locked=1;connectable=0;" parent="1" vertex="1">
          <mxGeometry x="3114" y="827" width="80" height="20" as="geometry" />
        </mxCell>
        <mxCell id="oG1cFY4iQdA7e23HUp6_-130" value="&lt;font style=&quot;font-size: 12px;&quot;&gt;wos_88&lt;/font&gt;" style="text;strokeColor=none;fillColor=none;html=1;fontSize=24;fontStyle=1;verticalAlign=middle;align=center;movable=0;resizable=0;rotatable=0;deletable=0;editable=0;locked=1;connectable=0;" parent="1" vertex="1">
          <mxGeometry x="2723" y="827" width="80" height="20" as="geometry" />
        </mxCell>
        <mxCell id="oG1cFY4iQdA7e23HUp6_-131" value="&lt;font style=&quot;font-size: 12px;&quot;&gt;wos_88&lt;/font&gt;" style="text;strokeColor=none;fillColor=none;html=1;fontSize=24;fontStyle=1;verticalAlign=middle;align=center;movable=0;resizable=0;rotatable=0;deletable=0;editable=0;locked=1;connectable=0;" parent="1" vertex="1">
          <mxGeometry y="1093" width="80" height="20" as="geometry" />
        </mxCell>
        <mxCell id="oG1cFY4iQdA7e23HUp6_-132" value="&lt;font style=&quot;font-size: 12px;&quot;&gt;wos_88&lt;/font&gt;" style="text;strokeColor=none;fillColor=none;html=1;fontSize=24;fontStyle=1;verticalAlign=middle;align=center;movable=0;resizable=0;rotatable=0;deletable=0;editable=0;locked=1;connectable=0;" parent="1" vertex="1">
          <mxGeometry x="390" y="1093" width="80" height="20" as="geometry" />
        </mxCell>
        <mxCell id="oG1cFY4iQdA7e23HUp6_-133" value="&lt;font style=&quot;font-size: 12px;&quot;&gt;wos_88&lt;/font&gt;" style="text;strokeColor=none;fillColor=none;html=1;fontSize=24;fontStyle=1;verticalAlign=middle;align=center;movable=0;resizable=0;rotatable=0;deletable=0;editable=0;locked=1;connectable=0;" parent="1" vertex="1">
          <mxGeometry x="778" y="1093" width="80" height="20" as="geometry" />
        </mxCell>
        <mxCell id="oG1cFY4iQdA7e23HUp6_-134" value="&lt;font style=&quot;font-size: 12px;&quot;&gt;wos_88&lt;/font&gt;" style="text;strokeColor=none;fillColor=none;html=1;fontSize=24;fontStyle=1;verticalAlign=middle;align=center;movable=0;resizable=0;rotatable=0;deletable=0;editable=0;locked=1;connectable=0;" parent="1" vertex="1">
          <mxGeometry x="1167" y="1093" width="80" height="20" as="geometry" />
        </mxCell>
        <mxCell id="oG1cFY4iQdA7e23HUp6_-135" value="&lt;font style=&quot;font-size: 12px;&quot;&gt;wos_88&lt;/font&gt;" style="text;strokeColor=none;fillColor=none;html=1;fontSize=24;fontStyle=1;verticalAlign=middle;align=center;movable=0;resizable=0;rotatable=0;deletable=0;editable=0;locked=1;connectable=0;" parent="1" vertex="1">
          <mxGeometry x="1556" y="1093" width="80" height="20" as="geometry" />
        </mxCell>
        <mxCell id="oG1cFY4iQdA7e23HUp6_-136" value="&lt;font style=&quot;font-size: 12px;&quot;&gt;wos_88&lt;/font&gt;" style="text;strokeColor=none;fillColor=none;html=1;fontSize=24;fontStyle=1;verticalAlign=middle;align=center;movable=0;resizable=0;rotatable=0;deletable=0;editable=0;locked=1;connectable=0;" parent="1" vertex="1">
          <mxGeometry x="1945" y="1093" width="80" height="20" as="geometry" />
        </mxCell>
        <mxCell id="oG1cFY4iQdA7e23HUp6_-137" value="&lt;font style=&quot;font-size: 12px;&quot;&gt;wos_88&lt;/font&gt;" style="text;strokeColor=none;fillColor=none;html=1;fontSize=24;fontStyle=1;verticalAlign=middle;align=center;movable=0;resizable=0;rotatable=0;deletable=0;editable=0;locked=1;connectable=0;" parent="1" vertex="1">
          <mxGeometry x="2334" y="1093" width="80" height="20" as="geometry" />
        </mxCell>
        <mxCell id="oG1cFY4iQdA7e23HUp6_-138" value="&lt;font style=&quot;font-size: 12px;&quot;&gt;wos_88&lt;/font&gt;" style="text;strokeColor=none;fillColor=none;html=1;fontSize=24;fontStyle=1;verticalAlign=middle;align=center;movable=0;resizable=0;rotatable=0;deletable=0;editable=0;locked=1;connectable=0;" parent="1" vertex="1">
          <mxGeometry x="3114" y="1093" width="80" height="20" as="geometry" />
        </mxCell>
        <mxCell id="oG1cFY4iQdA7e23HUp6_-139" value="&lt;font style=&quot;font-size: 12px;&quot;&gt;wos_88&lt;/font&gt;" style="text;strokeColor=none;fillColor=none;html=1;fontSize=24;fontStyle=1;verticalAlign=middle;align=center;movable=0;resizable=0;rotatable=0;deletable=0;editable=0;locked=1;connectable=0;" parent="1" vertex="1">
          <mxGeometry x="2723" y="1093" width="80" height="20" as="geometry" />
        </mxCell>
        <mxCell id="oG1cFY4iQdA7e23HUp6_-140" value="&lt;font style=&quot;font-size: 12px;&quot;&gt;wos_88&lt;/font&gt;" style="text;strokeColor=none;fillColor=none;html=1;fontSize=24;fontStyle=1;verticalAlign=middle;align=center;movable=0;resizable=0;rotatable=0;deletable=0;editable=0;locked=1;connectable=0;" parent="1" vertex="1">
          <mxGeometry y="1359" width="80" height="20" as="geometry" />
        </mxCell>
        <mxCell id="oG1cFY4iQdA7e23HUp6_-141" value="&lt;font style=&quot;font-size: 12px;&quot;&gt;wos_88&lt;/font&gt;" style="text;strokeColor=none;fillColor=none;html=1;fontSize=24;fontStyle=1;verticalAlign=middle;align=center;movable=0;resizable=0;rotatable=0;deletable=0;editable=0;locked=1;connectable=0;" parent="1" vertex="1">
          <mxGeometry x="390" y="1359" width="80" height="20" as="geometry" />
        </mxCell>
        <mxCell id="oG1cFY4iQdA7e23HUp6_-142" value="&lt;font style=&quot;font-size: 12px;&quot;&gt;wos_88&lt;/font&gt;" style="text;strokeColor=none;fillColor=none;html=1;fontSize=24;fontStyle=1;verticalAlign=middle;align=center;movable=0;resizable=0;rotatable=0;deletable=0;editable=0;locked=1;connectable=0;" parent="1" vertex="1">
          <mxGeometry x="778" y="1359" width="80" height="20" as="geometry" />
        </mxCell>
        <mxCell id="oG1cFY4iQdA7e23HUp6_-143" value="&lt;font style=&quot;font-size: 12px;&quot;&gt;wos_88&lt;/font&gt;" style="text;strokeColor=none;fillColor=none;html=1;fontSize=24;fontStyle=1;verticalAlign=middle;align=center;movable=0;resizable=0;rotatable=0;deletable=0;editable=0;locked=1;connectable=0;" parent="1" vertex="1">
          <mxGeometry x="1167" y="1359" width="80" height="20" as="geometry" />
        </mxCell>
        <mxCell id="oG1cFY4iQdA7e23HUp6_-144" value="&lt;font style=&quot;font-size: 12px;&quot;&gt;wos_88&lt;/font&gt;" style="text;strokeColor=none;fillColor=none;html=1;fontSize=24;fontStyle=1;verticalAlign=middle;align=center;movable=0;resizable=0;rotatable=0;deletable=0;editable=0;locked=1;connectable=0;" parent="1" vertex="1">
          <mxGeometry x="1556" y="1359" width="80" height="20" as="geometry" />
        </mxCell>
        <mxCell id="oG1cFY4iQdA7e23HUp6_-145" value="&lt;font style=&quot;font-size: 12px;&quot;&gt;wos_88&lt;/font&gt;" style="text;strokeColor=none;fillColor=none;html=1;fontSize=24;fontStyle=1;verticalAlign=middle;align=center;movable=0;resizable=0;rotatable=0;deletable=0;editable=0;locked=1;connectable=0;" parent="1" vertex="1">
          <mxGeometry x="1945" y="1359" width="80" height="20" as="geometry" />
        </mxCell>
        <mxCell id="oG1cFY4iQdA7e23HUp6_-146" value="&lt;font style=&quot;font-size: 12px;&quot;&gt;wos_88&lt;/font&gt;" style="text;strokeColor=none;fillColor=none;html=1;fontSize=24;fontStyle=1;verticalAlign=middle;align=center;movable=0;resizable=0;rotatable=0;deletable=0;editable=0;locked=1;connectable=0;" parent="1" vertex="1">
          <mxGeometry x="2334" y="1359" width="80" height="20" as="geometry" />
        </mxCell>
        <mxCell id="oG1cFY4iQdA7e23HUp6_-147" value="&lt;font style=&quot;font-size: 12px;&quot;&gt;wos_88&lt;/font&gt;" style="text;strokeColor=none;fillColor=none;html=1;fontSize=24;fontStyle=1;verticalAlign=middle;align=center;movable=0;resizable=0;rotatable=0;deletable=0;editable=0;locked=1;connectable=0;" parent="1" vertex="1">
          <mxGeometry x="3114" y="1359" width="80" height="20" as="geometry" />
        </mxCell>
        <mxCell id="oG1cFY4iQdA7e23HUp6_-148" value="&lt;font style=&quot;font-size: 12px;&quot;&gt;wos_88&lt;/font&gt;" style="text;strokeColor=none;fillColor=none;html=1;fontSize=24;fontStyle=1;verticalAlign=middle;align=center;movable=0;resizable=0;rotatable=0;deletable=0;editable=0;locked=1;connectable=0;" parent="1" vertex="1">
          <mxGeometry x="2723" y="1359" width="80" height="20" as="geometry" />
        </mxCell>
        <mxCell id="oG1cFY4iQdA7e23HUp6_-149" value="&lt;font style=&quot;font-size: 12px;&quot;&gt;wos_88&lt;/font&gt;" style="text;strokeColor=none;fillColor=none;html=1;fontSize=24;fontStyle=1;verticalAlign=middle;align=center;movable=0;resizable=0;rotatable=0;deletable=0;editable=0;locked=1;connectable=0;" parent="1" vertex="1">
          <mxGeometry y="1624" width="80" height="20" as="geometry" />
        </mxCell>
        <mxCell id="oG1cFY4iQdA7e23HUp6_-150" value="&lt;font style=&quot;font-size: 12px;&quot;&gt;wos_88&lt;/font&gt;" style="text;strokeColor=none;fillColor=none;html=1;fontSize=24;fontStyle=1;verticalAlign=middle;align=center;movable=0;resizable=0;rotatable=0;deletable=0;editable=0;locked=1;connectable=0;" parent="1" vertex="1">
          <mxGeometry x="390" y="1624" width="80" height="20" as="geometry" />
        </mxCell>
        <mxCell id="oG1cFY4iQdA7e23HUp6_-151" value="&lt;font style=&quot;font-size: 12px;&quot;&gt;wos_88&lt;/font&gt;" style="text;strokeColor=none;fillColor=none;html=1;fontSize=24;fontStyle=1;verticalAlign=middle;align=center;movable=0;resizable=0;rotatable=0;deletable=0;editable=0;locked=1;connectable=0;" parent="1" vertex="1">
          <mxGeometry x="778" y="1624" width="80" height="20" as="geometry" />
        </mxCell>
        <mxCell id="oG1cFY4iQdA7e23HUp6_-152" value="&lt;font style=&quot;font-size: 12px;&quot;&gt;wos_88&lt;/font&gt;" style="text;strokeColor=none;fillColor=none;html=1;fontSize=24;fontStyle=1;verticalAlign=middle;align=center;movable=0;resizable=0;rotatable=0;deletable=0;editable=0;locked=1;connectable=0;" parent="1" vertex="1">
          <mxGeometry x="1167" y="1624" width="80" height="20" as="geometry" />
        </mxCell>
        <mxCell id="oG1cFY4iQdA7e23HUp6_-153" value="&lt;font style=&quot;font-size: 12px;&quot;&gt;wos_88&lt;/font&gt;" style="text;strokeColor=none;fillColor=none;html=1;fontSize=24;fontStyle=1;verticalAlign=middle;align=center;movable=0;resizable=0;rotatable=0;deletable=0;editable=0;locked=1;connectable=0;" parent="1" vertex="1">
          <mxGeometry x="1556" y="1624" width="80" height="20" as="geometry" />
        </mxCell>
        <mxCell id="oG1cFY4iQdA7e23HUp6_-154" value="&lt;font style=&quot;font-size: 12px;&quot;&gt;wos_88&lt;/font&gt;" style="text;strokeColor=none;fillColor=none;html=1;fontSize=24;fontStyle=1;verticalAlign=middle;align=center;movable=0;resizable=0;rotatable=0;deletable=0;editable=0;locked=1;connectable=0;" parent="1" vertex="1">
          <mxGeometry x="1945" y="1624" width="80" height="20" as="geometry" />
        </mxCell>
        <mxCell id="oG1cFY4iQdA7e23HUp6_-155" value="&lt;font style=&quot;font-size: 12px;&quot;&gt;wos_88&lt;/font&gt;" style="text;strokeColor=none;fillColor=none;html=1;fontSize=24;fontStyle=1;verticalAlign=middle;align=center;movable=0;resizable=0;rotatable=0;deletable=0;editable=0;locked=1;connectable=0;" parent="1" vertex="1">
          <mxGeometry x="2334" y="1624" width="80" height="20" as="geometry" />
        </mxCell>
        <mxCell id="oG1cFY4iQdA7e23HUp6_-156" value="&lt;font style=&quot;font-size: 12px;&quot;&gt;wos_88&lt;/font&gt;" style="text;strokeColor=none;fillColor=none;html=1;fontSize=24;fontStyle=1;verticalAlign=middle;align=center;movable=0;resizable=0;rotatable=0;deletable=0;editable=0;locked=1;connectable=0;" parent="1" vertex="1">
          <mxGeometry x="3114" y="1624" width="80" height="20" as="geometry" />
        </mxCell>
        <mxCell id="oG1cFY4iQdA7e23HUp6_-157" value="&lt;font style=&quot;font-size: 12px;&quot;&gt;wos_88&lt;/font&gt;" style="text;strokeColor=none;fillColor=none;html=1;fontSize=24;fontStyle=1;verticalAlign=middle;align=center;movable=0;resizable=0;rotatable=0;deletable=0;editable=0;locked=1;connectable=0;" parent="1" vertex="1">
          <mxGeometry x="2723" y="1624" width="80" height="20" as="geometry" />
        </mxCell>
        <mxCell id="oG1cFY4iQdA7e23HUp6_-158" value="&lt;font style=&quot;font-size: 12px;&quot;&gt;wos_88&lt;/font&gt;" style="text;strokeColor=none;fillColor=none;html=1;fontSize=24;fontStyle=1;verticalAlign=middle;align=center;movable=0;resizable=0;rotatable=0;deletable=0;editable=0;locked=1;connectable=0;" parent="1" vertex="1">
          <mxGeometry y="1890" width="80" height="20" as="geometry" />
        </mxCell>
        <mxCell id="oG1cFY4iQdA7e23HUp6_-159" value="&lt;font style=&quot;font-size: 12px;&quot;&gt;wos_88&lt;/font&gt;" style="text;strokeColor=none;fillColor=none;html=1;fontSize=24;fontStyle=1;verticalAlign=middle;align=center;movable=0;resizable=0;rotatable=0;deletable=0;editable=0;locked=1;connectable=0;" parent="1" vertex="1">
          <mxGeometry x="390" y="1890" width="80" height="20" as="geometry" />
        </mxCell>
        <mxCell id="oG1cFY4iQdA7e23HUp6_-160" value="&lt;font style=&quot;font-size: 12px;&quot;&gt;wos_88&lt;/font&gt;" style="text;strokeColor=none;fillColor=none;html=1;fontSize=24;fontStyle=1;verticalAlign=middle;align=center;movable=0;resizable=0;rotatable=0;deletable=0;editable=0;locked=1;connectable=0;" parent="1" vertex="1">
          <mxGeometry x="778" y="1890" width="80" height="20" as="geometry" />
        </mxCell>
        <mxCell id="oG1cFY4iQdA7e23HUp6_-161" value="&lt;font style=&quot;font-size: 12px;&quot;&gt;wos_88&lt;/font&gt;" style="text;strokeColor=none;fillColor=none;html=1;fontSize=24;fontStyle=1;verticalAlign=middle;align=center;movable=0;resizable=0;rotatable=0;deletable=0;editable=0;locked=1;connectable=0;" parent="1" vertex="1">
          <mxGeometry x="1167" y="1890" width="80" height="20" as="geometry" />
        </mxCell>
        <mxCell id="oG1cFY4iQdA7e23HUp6_-162" value="&lt;font style=&quot;font-size: 12px;&quot;&gt;wos_88&lt;/font&gt;" style="text;strokeColor=none;fillColor=none;html=1;fontSize=24;fontStyle=1;verticalAlign=middle;align=center;movable=0;resizable=0;rotatable=0;deletable=0;editable=0;locked=1;connectable=0;" parent="1" vertex="1">
          <mxGeometry x="1556" y="1890" width="80" height="20" as="geometry" />
        </mxCell>
        <mxCell id="oG1cFY4iQdA7e23HUp6_-163" value="&lt;font style=&quot;font-size: 12px;&quot;&gt;wos_88&lt;/font&gt;" style="text;strokeColor=none;fillColor=none;html=1;fontSize=24;fontStyle=1;verticalAlign=middle;align=center;movable=0;resizable=0;rotatable=0;deletable=0;editable=0;locked=1;connectable=0;" parent="1" vertex="1">
          <mxGeometry x="1945" y="1890" width="80" height="20" as="geometry" />
        </mxCell>
        <mxCell id="oG1cFY4iQdA7e23HUp6_-164" value="&lt;font style=&quot;font-size: 12px;&quot;&gt;wos_88&lt;/font&gt;" style="text;strokeColor=none;fillColor=none;html=1;fontSize=24;fontStyle=1;verticalAlign=middle;align=center;movable=0;resizable=0;rotatable=0;deletable=0;editable=0;locked=1;connectable=0;" parent="1" vertex="1">
          <mxGeometry x="2334" y="1890" width="80" height="20" as="geometry" />
        </mxCell>
        <mxCell id="oG1cFY4iQdA7e23HUp6_-165" value="&lt;font style=&quot;font-size: 12px;&quot;&gt;wos_88&lt;/font&gt;" style="text;strokeColor=none;fillColor=none;html=1;fontSize=24;fontStyle=1;verticalAlign=middle;align=center;movable=0;resizable=0;rotatable=0;deletable=0;editable=0;locked=1;connectable=0;" parent="1" vertex="1">
          <mxGeometry x="3114" y="1890" width="80" height="20" as="geometry" />
        </mxCell>
        <mxCell id="oG1cFY4iQdA7e23HUp6_-166" value="&lt;font style=&quot;font-size: 12px;&quot;&gt;wos_88&lt;/font&gt;" style="text;strokeColor=none;fillColor=none;html=1;fontSize=24;fontStyle=1;verticalAlign=middle;align=center;movable=0;resizable=0;rotatable=0;deletable=0;editable=0;locked=1;connectable=0;" parent="1" vertex="1">
          <mxGeometry x="2723" y="1890" width="80" height="20" as="geometry" />
        </mxCell>
        <mxCell id="oG1cFY4iQdA7e23HUp6_-167" value="&lt;font style=&quot;font-size: 12px;&quot;&gt;wos_88&lt;/font&gt;" style="text;strokeColor=none;fillColor=none;html=1;fontSize=24;fontStyle=1;verticalAlign=middle;align=center;movable=0;resizable=0;rotatable=0;deletable=0;editable=0;locked=1;connectable=0;" parent="1" vertex="1">
          <mxGeometry y="2157" width="80" height="20" as="geometry" />
        </mxCell>
        <mxCell id="oG1cFY4iQdA7e23HUp6_-168" value="&lt;font style=&quot;font-size: 12px;&quot;&gt;wos_88&lt;/font&gt;" style="text;strokeColor=none;fillColor=none;html=1;fontSize=24;fontStyle=1;verticalAlign=middle;align=center;movable=0;resizable=0;rotatable=0;deletable=0;editable=0;locked=1;connectable=0;" parent="1" vertex="1">
          <mxGeometry x="390" y="2157" width="80" height="20" as="geometry" />
        </mxCell>
        <mxCell id="oG1cFY4iQdA7e23HUp6_-169" value="&lt;font style=&quot;font-size: 12px;&quot;&gt;wos_88&lt;/font&gt;" style="text;strokeColor=none;fillColor=none;html=1;fontSize=24;fontStyle=1;verticalAlign=middle;align=center;movable=0;resizable=0;rotatable=0;deletable=0;editable=0;locked=1;connectable=0;" parent="1" vertex="1">
          <mxGeometry x="778" y="2157" width="80" height="20" as="geometry" />
        </mxCell>
        <mxCell id="oG1cFY4iQdA7e23HUp6_-170" value="&lt;font style=&quot;font-size: 12px;&quot;&gt;wos_88&lt;/font&gt;" style="text;strokeColor=none;fillColor=none;html=1;fontSize=24;fontStyle=1;verticalAlign=middle;align=center;movable=0;resizable=0;rotatable=0;deletable=0;editable=0;locked=1;connectable=0;" parent="1" vertex="1">
          <mxGeometry x="1167" y="2157" width="80" height="20" as="geometry" />
        </mxCell>
        <mxCell id="oG1cFY4iQdA7e23HUp6_-171" value="&lt;font style=&quot;font-size: 12px;&quot;&gt;wos_88&lt;/font&gt;" style="text;strokeColor=none;fillColor=none;html=1;fontSize=24;fontStyle=1;verticalAlign=middle;align=center;movable=0;resizable=0;rotatable=0;deletable=0;editable=0;locked=1;connectable=0;" parent="1" vertex="1">
          <mxGeometry x="1556" y="2157" width="80" height="20" as="geometry" />
        </mxCell>
        <mxCell id="oG1cFY4iQdA7e23HUp6_-172" value="&lt;font style=&quot;font-size: 12px;&quot;&gt;wos_88&lt;/font&gt;" style="text;strokeColor=none;fillColor=none;html=1;fontSize=24;fontStyle=1;verticalAlign=middle;align=center;movable=0;resizable=0;rotatable=0;deletable=0;editable=0;locked=1;connectable=0;" parent="1" vertex="1">
          <mxGeometry x="1945" y="2157" width="80" height="20" as="geometry" />
        </mxCell>
        <mxCell id="oG1cFY4iQdA7e23HUp6_-173" value="&lt;font style=&quot;font-size: 12px;&quot;&gt;wos_88&lt;/font&gt;" style="text;strokeColor=none;fillColor=none;html=1;fontSize=24;fontStyle=1;verticalAlign=middle;align=center;movable=0;resizable=0;rotatable=0;deletable=0;editable=0;locked=1;connectable=0;" parent="1" vertex="1">
          <mxGeometry x="2334" y="2157" width="80" height="20" as="geometry" />
        </mxCell>
        <mxCell id="oG1cFY4iQdA7e23HUp6_-174" value="&lt;font style=&quot;font-size: 12px;&quot;&gt;wos_88&lt;/font&gt;" style="text;strokeColor=none;fillColor=none;html=1;fontSize=24;fontStyle=1;verticalAlign=middle;align=center;movable=0;resizable=0;rotatable=0;deletable=0;editable=0;locked=1;connectable=0;" parent="1" vertex="1">
          <mxGeometry x="3114" y="2157" width="80" height="20" as="geometry" />
        </mxCell>
        <mxCell id="oG1cFY4iQdA7e23HUp6_-175" value="&lt;font style=&quot;font-size: 12px;&quot;&gt;wos_88&lt;/font&gt;" style="text;strokeColor=none;fillColor=none;html=1;fontSize=24;fontStyle=1;verticalAlign=middle;align=center;movable=0;resizable=0;rotatable=0;deletable=0;editable=0;locked=1;connectable=0;" parent="1" vertex="1">
          <mxGeometry x="2723" y="2157" width="80" height="20" as="geometry" />
        </mxCell>
        <mxCell id="Up8PhnG88JKuGeufV499-13" style="edgeStyle=orthogonalEdgeStyle;rounded=0;orthogonalLoop=1;jettySize=auto;html=1;exitX=0.5;exitY=1;exitDx=0;exitDy=0;entryX=0.5;entryY=0;entryDx=0;entryDy=0;" edge="1" parent="1" source="Up8PhnG88JKuGeufV499-1" target="Up8PhnG88JKuGeufV499-6">
          <mxGeometry relative="1" as="geometry" />
        </mxCell>
        <mxCell id="Up8PhnG88JKuGeufV499-14" style="edgeStyle=orthogonalEdgeStyle;rounded=0;orthogonalLoop=1;jettySize=auto;html=1;exitX=0;exitY=0.5;exitDx=0;exitDy=0;" edge="1" parent="1" source="Up8PhnG88JKuGeufV499-1">
          <mxGeometry relative="1" as="geometry">
            <mxPoint x="-980" y="310" as="targetPoint" />
          </mxGeometry>
        </mxCell>
        <mxCell id="Up8PhnG88JKuGeufV499-15" style="edgeStyle=orthogonalEdgeStyle;rounded=0;orthogonalLoop=1;jettySize=auto;html=1;exitX=0;exitY=0.5;exitDx=0;exitDy=0;entryX=1;entryY=0.5;entryDx=0;entryDy=0;" edge="1" parent="1" source="Up8PhnG88JKuGeufV499-1" target="Up8PhnG88JKuGeufV499-5">
          <mxGeometry relative="1" as="geometry" />
        </mxCell>
        <mxCell id="Up8PhnG88JKuGeufV499-16" style="edgeStyle=orthogonalEdgeStyle;rounded=0;orthogonalLoop=1;jettySize=auto;html=1;exitX=0;exitY=0.25;exitDx=0;exitDy=0;entryX=1;entryY=0.5;entryDx=0;entryDy=0;" edge="1" parent="1" source="Up8PhnG88JKuGeufV499-1" target="Up8PhnG88JKuGeufV499-2">
          <mxGeometry relative="1" as="geometry" />
        </mxCell>
        <mxCell id="Up8PhnG88JKuGeufV499-41" style="edgeStyle=orthogonalEdgeStyle;rounded=0;orthogonalLoop=1;jettySize=auto;html=1;exitX=1;exitY=0.5;exitDx=0;exitDy=0;" edge="1" parent="1" source="Up8PhnG88JKuGeufV499-1" target="Up8PhnG88JKuGeufV499-36">
          <mxGeometry relative="1" as="geometry" />
        </mxCell>
        <mxCell id="Up8PhnG88JKuGeufV499-43" style="edgeStyle=orthogonalEdgeStyle;rounded=0;orthogonalLoop=1;jettySize=auto;html=1;exitX=0.5;exitY=0;exitDx=0;exitDy=0;" edge="1" parent="1" source="Up8PhnG88JKuGeufV499-1" target="Up8PhnG88JKuGeufV499-42">
          <mxGeometry relative="1" as="geometry" />
        </mxCell>
        <mxCell id="Up8PhnG88JKuGeufV499-1" value="Text" style="text;html=1;strokeColor=none;fillColor=none;align=center;verticalAlign=middle;whiteSpace=wrap;rounded=0;" vertex="1" parent="1">
          <mxGeometry x="-830" y="286" width="60" height="30" as="geometry" />
        </mxCell>
        <mxCell id="Up8PhnG88JKuGeufV499-48" style="edgeStyle=orthogonalEdgeStyle;rounded=0;orthogonalLoop=1;jettySize=auto;html=1;exitX=0;exitY=0.5;exitDx=0;exitDy=0;" edge="1" parent="1" source="Up8PhnG88JKuGeufV499-2" target="Up8PhnG88JKuGeufV499-46">
          <mxGeometry relative="1" as="geometry" />
        </mxCell>
        <mxCell id="Up8PhnG88JKuGeufV499-52" value="hypothesis" style="edgeLabel;html=1;align=center;verticalAlign=middle;resizable=0;points=[];" vertex="1" connectable="0" parent="Up8PhnG88JKuGeufV499-48">
          <mxGeometry x="0.0168" y="-1" relative="1" as="geometry">
            <mxPoint as="offset" />
          </mxGeometry>
        </mxCell>
        <mxCell id="Up8PhnG88JKuGeufV499-2" value="introduction" style="text;html=1;strokeColor=none;fillColor=none;align=center;verticalAlign=middle;whiteSpace=wrap;rounded=0;" vertex="1" parent="1">
          <mxGeometry x="-1050" y="180" width="60" height="30" as="geometry" />
        </mxCell>
        <mxCell id="Up8PhnG88JKuGeufV499-17" style="edgeStyle=orthogonalEdgeStyle;rounded=0;orthogonalLoop=1;jettySize=auto;html=1;exitX=0;exitY=0.25;exitDx=0;exitDy=0;entryX=1;entryY=0.25;entryDx=0;entryDy=0;" edge="1" parent="1" source="Up8PhnG88JKuGeufV499-3" target="Up8PhnG88JKuGeufV499-4">
          <mxGeometry relative="1" as="geometry" />
        </mxCell>
        <mxCell id="Up8PhnG88JKuGeufV499-55" style="edgeStyle=orthogonalEdgeStyle;rounded=0;orthogonalLoop=1;jettySize=auto;html=1;exitX=0;exitY=0.25;exitDx=0;exitDy=0;entryX=1;entryY=0.5;entryDx=0;entryDy=0;" edge="1" parent="1" source="Up8PhnG88JKuGeufV499-3" target="Up8PhnG88JKuGeufV499-53">
          <mxGeometry relative="1" as="geometry" />
        </mxCell>
        <mxCell id="Up8PhnG88JKuGeufV499-56" style="edgeStyle=orthogonalEdgeStyle;rounded=0;orthogonalLoop=1;jettySize=auto;html=1;exitX=0;exitY=0.5;exitDx=0;exitDy=0;" edge="1" parent="1" source="Up8PhnG88JKuGeufV499-3" target="Up8PhnG88JKuGeufV499-54">
          <mxGeometry relative="1" as="geometry" />
        </mxCell>
        <mxCell id="Up8PhnG88JKuGeufV499-3" value="residential segregation and ABM" style="text;html=1;strokeColor=none;fillColor=none;align=center;verticalAlign=middle;whiteSpace=wrap;rounded=0;" vertex="1" parent="1">
          <mxGeometry x="-1050" y="300" width="60" height="30" as="geometry" />
        </mxCell>
        <mxCell id="Up8PhnG88JKuGeufV499-4" value="policy implications" style="text;html=1;strokeColor=none;fillColor=none;align=center;verticalAlign=middle;whiteSpace=wrap;rounded=0;" vertex="1" parent="1">
          <mxGeometry x="-1200" y="390" width="60" height="30" as="geometry" />
        </mxCell>
        <mxCell id="Up8PhnG88JKuGeufV499-58" style="edgeStyle=orthogonalEdgeStyle;rounded=0;orthogonalLoop=1;jettySize=auto;html=1;exitX=0;exitY=0.5;exitDx=0;exitDy=0;entryX=1;entryY=0.5;entryDx=0;entryDy=0;" edge="1" parent="1" source="Up8PhnG88JKuGeufV499-5" target="Up8PhnG88JKuGeufV499-57">
          <mxGeometry relative="1" as="geometry" />
        </mxCell>
        <mxCell id="Up8PhnG88JKuGeufV499-5" value="residential segregation in buffalo" style="text;html=1;strokeColor=none;fillColor=none;align=center;verticalAlign=middle;whiteSpace=wrap;rounded=0;" vertex="1" parent="1">
          <mxGeometry x="-1050" y="420" width="60" height="30" as="geometry" />
        </mxCell>
        <mxCell id="Up8PhnG88JKuGeufV499-10" style="edgeStyle=orthogonalEdgeStyle;rounded=0;orthogonalLoop=1;jettySize=auto;html=1;exitX=1;exitY=0.5;exitDx=0;exitDy=0;entryX=0;entryY=0.25;entryDx=0;entryDy=0;" edge="1" parent="1" source="Up8PhnG88JKuGeufV499-6" target="Up8PhnG88JKuGeufV499-9">
          <mxGeometry relative="1" as="geometry" />
        </mxCell>
        <mxCell id="Up8PhnG88JKuGeufV499-11" style="edgeStyle=orthogonalEdgeStyle;rounded=0;orthogonalLoop=1;jettySize=auto;html=1;exitX=0.5;exitY=1;exitDx=0;exitDy=0;entryX=0.5;entryY=0;entryDx=0;entryDy=0;" edge="1" parent="1" source="Up8PhnG88JKuGeufV499-6" target="Up8PhnG88JKuGeufV499-8">
          <mxGeometry relative="1" as="geometry" />
        </mxCell>
        <mxCell id="Up8PhnG88JKuGeufV499-12" style="edgeStyle=orthogonalEdgeStyle;rounded=0;orthogonalLoop=1;jettySize=auto;html=1;exitX=0.5;exitY=1;exitDx=0;exitDy=0;" edge="1" parent="1" source="Up8PhnG88JKuGeufV499-6" target="Up8PhnG88JKuGeufV499-7">
          <mxGeometry relative="1" as="geometry" />
        </mxCell>
        <mxCell id="Up8PhnG88JKuGeufV499-6" value="research method" style="text;html=1;strokeColor=none;fillColor=none;align=center;verticalAlign=middle;whiteSpace=wrap;rounded=0;" vertex="1" parent="1">
          <mxGeometry x="-830" y="420" width="60" height="30" as="geometry" />
        </mxCell>
        <mxCell id="Up8PhnG88JKuGeufV499-61" style="edgeStyle=orthogonalEdgeStyle;rounded=0;orthogonalLoop=1;jettySize=auto;html=1;exitX=0.5;exitY=1;exitDx=0;exitDy=0;entryX=1;entryY=0.5;entryDx=0;entryDy=0;" edge="1" parent="1" source="Up8PhnG88JKuGeufV499-7" target="Up8PhnG88JKuGeufV499-60">
          <mxGeometry relative="1" as="geometry" />
        </mxCell>
        <mxCell id="Up8PhnG88JKuGeufV499-7" value="data collection and processing" style="text;html=1;strokeColor=none;fillColor=none;align=center;verticalAlign=middle;whiteSpace=wrap;rounded=0;" vertex="1" parent="1">
          <mxGeometry x="-920" y="520" width="60" height="30" as="geometry" />
        </mxCell>
        <mxCell id="Up8PhnG88JKuGeufV499-63" style="edgeStyle=orthogonalEdgeStyle;rounded=0;orthogonalLoop=1;jettySize=auto;html=1;exitX=0.5;exitY=1;exitDx=0;exitDy=0;" edge="1" parent="1" source="Up8PhnG88JKuGeufV499-8" target="Up8PhnG88JKuGeufV499-62">
          <mxGeometry relative="1" as="geometry" />
        </mxCell>
        <mxCell id="Up8PhnG88JKuGeufV499-8" value="analysis of historical data: residential segregation and housing price" style="text;html=1;strokeColor=none;fillColor=none;align=center;verticalAlign=middle;whiteSpace=wrap;rounded=0;" vertex="1" parent="1">
          <mxGeometry x="-820" y="520" width="140" height="30" as="geometry" />
        </mxCell>
        <mxCell id="Up8PhnG88JKuGeufV499-20" style="edgeStyle=orthogonalEdgeStyle;rounded=0;orthogonalLoop=1;jettySize=auto;html=1;exitX=1;exitY=0.5;exitDx=0;exitDy=0;" edge="1" parent="1" source="Up8PhnG88JKuGeufV499-9" target="Up8PhnG88JKuGeufV499-18">
          <mxGeometry relative="1" as="geometry" />
        </mxCell>
        <mxCell id="Up8PhnG88JKuGeufV499-21" style="edgeStyle=orthogonalEdgeStyle;rounded=0;orthogonalLoop=1;jettySize=auto;html=1;exitX=1;exitY=0.5;exitDx=0;exitDy=0;" edge="1" parent="1" source="Up8PhnG88JKuGeufV499-9" target="Up8PhnG88JKuGeufV499-19">
          <mxGeometry relative="1" as="geometry" />
        </mxCell>
        <mxCell id="Up8PhnG88JKuGeufV499-29" style="edgeStyle=orthogonalEdgeStyle;rounded=0;orthogonalLoop=1;jettySize=auto;html=1;exitX=1;exitY=0.5;exitDx=0;exitDy=0;entryX=0;entryY=0.5;entryDx=0;entryDy=0;" edge="1" parent="1" source="Up8PhnG88JKuGeufV499-9" target="Up8PhnG88JKuGeufV499-28">
          <mxGeometry relative="1" as="geometry" />
        </mxCell>
        <mxCell id="Up8PhnG88JKuGeufV499-9" value="building an abm of residential segregation" style="text;html=1;strokeColor=none;fillColor=none;align=center;verticalAlign=middle;whiteSpace=wrap;rounded=0;" vertex="1" parent="1">
          <mxGeometry x="-710" y="420" width="140" height="30" as="geometry" />
        </mxCell>
        <mxCell id="Up8PhnG88JKuGeufV499-65" style="edgeStyle=orthogonalEdgeStyle;rounded=0;orthogonalLoop=1;jettySize=auto;html=1;exitX=1;exitY=0.5;exitDx=0;exitDy=0;" edge="1" parent="1" source="Up8PhnG88JKuGeufV499-18" target="Up8PhnG88JKuGeufV499-64">
          <mxGeometry relative="1" as="geometry" />
        </mxCell>
        <mxCell id="Up8PhnG88JKuGeufV499-18" value="study area" style="text;html=1;strokeColor=none;fillColor=none;align=center;verticalAlign=middle;whiteSpace=wrap;rounded=0;" vertex="1" parent="1">
          <mxGeometry x="-540" y="390" width="140" height="30" as="geometry" />
        </mxCell>
        <mxCell id="Up8PhnG88JKuGeufV499-30" style="edgeStyle=orthogonalEdgeStyle;rounded=0;orthogonalLoop=1;jettySize=auto;html=1;exitX=1;exitY=0.5;exitDx=0;exitDy=0;" edge="1" parent="1" source="Up8PhnG88JKuGeufV499-19" target="Up8PhnG88JKuGeufV499-22">
          <mxGeometry relative="1" as="geometry" />
        </mxCell>
        <mxCell id="Up8PhnG88JKuGeufV499-31" style="edgeStyle=orthogonalEdgeStyle;rounded=0;orthogonalLoop=1;jettySize=auto;html=1;exitX=1;exitY=0.5;exitDx=0;exitDy=0;" edge="1" parent="1" source="Up8PhnG88JKuGeufV499-19" target="Up8PhnG88JKuGeufV499-23">
          <mxGeometry relative="1" as="geometry" />
        </mxCell>
        <mxCell id="Up8PhnG88JKuGeufV499-32" style="edgeStyle=orthogonalEdgeStyle;rounded=0;orthogonalLoop=1;jettySize=auto;html=1;exitX=1;exitY=0.5;exitDx=0;exitDy=0;entryX=0;entryY=0.5;entryDx=0;entryDy=0;" edge="1" parent="1" source="Up8PhnG88JKuGeufV499-19" target="Up8PhnG88JKuGeufV499-24">
          <mxGeometry relative="1" as="geometry" />
        </mxCell>
        <mxCell id="Up8PhnG88JKuGeufV499-33" style="edgeStyle=orthogonalEdgeStyle;rounded=0;orthogonalLoop=1;jettySize=auto;html=1;exitX=1;exitY=0.5;exitDx=0;exitDy=0;entryX=0;entryY=0.5;entryDx=0;entryDy=0;" edge="1" parent="1" source="Up8PhnG88JKuGeufV499-19" target="Up8PhnG88JKuGeufV499-25">
          <mxGeometry relative="1" as="geometry" />
        </mxCell>
        <mxCell id="Up8PhnG88JKuGeufV499-35" style="edgeStyle=orthogonalEdgeStyle;rounded=0;orthogonalLoop=1;jettySize=auto;html=1;exitX=1;exitY=0.5;exitDx=0;exitDy=0;entryX=0;entryY=0.25;entryDx=0;entryDy=0;" edge="1" parent="1" source="Up8PhnG88JKuGeufV499-19" target="Up8PhnG88JKuGeufV499-26">
          <mxGeometry relative="1" as="geometry" />
        </mxCell>
        <mxCell id="Up8PhnG88JKuGeufV499-19" value="model development" style="text;html=1;strokeColor=none;fillColor=none;align=center;verticalAlign=middle;whiteSpace=wrap;rounded=0;" vertex="1" parent="1">
          <mxGeometry x="-540" y="440" width="140" height="30" as="geometry" />
        </mxCell>
        <mxCell id="Up8PhnG88JKuGeufV499-22" value="agent topology" style="text;html=1;strokeColor=none;fillColor=none;align=center;verticalAlign=middle;whiteSpace=wrap;rounded=0;" vertex="1" parent="1">
          <mxGeometry x="-330" y="430" width="140" height="30" as="geometry" />
        </mxCell>
        <mxCell id="Up8PhnG88JKuGeufV499-68" style="edgeStyle=orthogonalEdgeStyle;rounded=0;orthogonalLoop=1;jettySize=auto;html=1;exitX=1;exitY=0.5;exitDx=0;exitDy=0;" edge="1" parent="1" source="Up8PhnG88JKuGeufV499-23" target="Up8PhnG88JKuGeufV499-66">
          <mxGeometry relative="1" as="geometry" />
        </mxCell>
        <mxCell id="Up8PhnG88JKuGeufV499-69" style="edgeStyle=orthogonalEdgeStyle;rounded=0;orthogonalLoop=1;jettySize=auto;html=1;exitX=1;exitY=0.5;exitDx=0;exitDy=0;" edge="1" parent="1" source="Up8PhnG88JKuGeufV499-23" target="Up8PhnG88JKuGeufV499-67">
          <mxGeometry relative="1" as="geometry" />
        </mxCell>
        <mxCell id="Up8PhnG88JKuGeufV499-23" value="model setup and flow" style="text;html=1;strokeColor=none;fillColor=none;align=center;verticalAlign=middle;whiteSpace=wrap;rounded=0;" vertex="1" parent="1">
          <mxGeometry x="-320" y="460" width="140" height="30" as="geometry" />
        </mxCell>
        <mxCell id="Up8PhnG88JKuGeufV499-24" value="rule development" style="text;html=1;strokeColor=none;fillColor=none;align=center;verticalAlign=middle;whiteSpace=wrap;rounded=0;" vertex="1" parent="1">
          <mxGeometry x="-330" y="510" width="140" height="30" as="geometry" />
        </mxCell>
        <mxCell id="Up8PhnG88JKuGeufV499-25" value="the racial model and racial-class model" style="text;html=1;strokeColor=none;fillColor=none;align=center;verticalAlign=middle;whiteSpace=wrap;rounded=0;" vertex="1" parent="1">
          <mxGeometry x="-330" y="540" width="140" height="30" as="geometry" />
        </mxCell>
        <mxCell id="Up8PhnG88JKuGeufV499-26" value="model calibration and validation" style="text;html=1;strokeColor=none;fillColor=none;align=center;verticalAlign=middle;whiteSpace=wrap;rounded=0;" vertex="1" parent="1">
          <mxGeometry x="-330" y="580" width="140" height="30" as="geometry" />
        </mxCell>
        <mxCell id="Up8PhnG88JKuGeufV499-28" value="policy implications" style="text;html=1;strokeColor=none;fillColor=none;align=center;verticalAlign=middle;whiteSpace=wrap;rounded=0;" vertex="1" parent="1">
          <mxGeometry x="-530" y="640" width="140" height="30" as="geometry" />
        </mxCell>
        <mxCell id="Up8PhnG88JKuGeufV499-39" style="edgeStyle=orthogonalEdgeStyle;rounded=0;orthogonalLoop=1;jettySize=auto;html=1;exitX=1;exitY=0.5;exitDx=0;exitDy=0;" edge="1" parent="1" source="Up8PhnG88JKuGeufV499-36" target="Up8PhnG88JKuGeufV499-38">
          <mxGeometry relative="1" as="geometry" />
        </mxCell>
        <mxCell id="Up8PhnG88JKuGeufV499-40" style="edgeStyle=orthogonalEdgeStyle;rounded=0;orthogonalLoop=1;jettySize=auto;html=1;exitX=1;exitY=0.5;exitDx=0;exitDy=0;entryX=0;entryY=0.5;entryDx=0;entryDy=0;" edge="1" parent="1" source="Up8PhnG88JKuGeufV499-36" target="Up8PhnG88JKuGeufV499-37">
          <mxGeometry relative="1" as="geometry" />
        </mxCell>
        <mxCell id="Up8PhnG88JKuGeufV499-36" value="result and discussion" style="text;html=1;strokeColor=none;fillColor=none;align=center;verticalAlign=middle;whiteSpace=wrap;rounded=0;" vertex="1" parent="1">
          <mxGeometry x="-710" y="286" width="60" height="30" as="geometry" />
        </mxCell>
        <mxCell id="Up8PhnG88JKuGeufV499-37" value="result of the descriptive analysis: residential segregation and housing price in the late 20th century" style="text;html=1;strokeColor=none;fillColor=none;align=center;verticalAlign=middle;whiteSpace=wrap;rounded=0;" vertex="1" parent="1">
          <mxGeometry x="-590" y="240" width="220" height="30" as="geometry" />
        </mxCell>
        <mxCell id="Up8PhnG88JKuGeufV499-38" value="results from the agent-based models" style="text;html=1;strokeColor=none;fillColor=none;align=center;verticalAlign=middle;whiteSpace=wrap;rounded=0;" vertex="1" parent="1">
          <mxGeometry x="-590" y="300" width="220" height="30" as="geometry" />
        </mxCell>
        <mxCell id="Up8PhnG88JKuGeufV499-45" style="edgeStyle=orthogonalEdgeStyle;rounded=0;orthogonalLoop=1;jettySize=auto;html=1;exitX=0.5;exitY=0;exitDx=0;exitDy=0;entryX=0.5;entryY=1;entryDx=0;entryDy=0;" edge="1" parent="1" source="Up8PhnG88JKuGeufV499-42" target="Up8PhnG88JKuGeufV499-44">
          <mxGeometry relative="1" as="geometry" />
        </mxCell>
        <mxCell id="Up8PhnG88JKuGeufV499-42" value="conclusion" style="text;html=1;strokeColor=none;fillColor=none;align=center;verticalAlign=middle;whiteSpace=wrap;rounded=0;" vertex="1" parent="1">
          <mxGeometry x="-770" y="190" width="60" height="30" as="geometry" />
        </mxCell>
        <mxCell id="Up8PhnG88JKuGeufV499-44" value="future research and limitations" style="text;html=1;strokeColor=none;fillColor=none;align=center;verticalAlign=middle;whiteSpace=wrap;rounded=0;" vertex="1" parent="1">
          <mxGeometry x="-770" y="120" width="120" height="30" as="geometry" />
        </mxCell>
        <mxCell id="Up8PhnG88JKuGeufV499-50" style="edgeStyle=orthogonalEdgeStyle;rounded=0;orthogonalLoop=1;jettySize=auto;html=1;exitX=0;exitY=0.5;exitDx=0;exitDy=0;" edge="1" parent="1" source="Up8PhnG88JKuGeufV499-46" target="Up8PhnG88JKuGeufV499-49">
          <mxGeometry relative="1" as="geometry" />
        </mxCell>
        <mxCell id="Up8PhnG88JKuGeufV499-51" value="form" style="edgeLabel;html=1;align=center;verticalAlign=middle;resizable=0;points=[];" vertex="1" connectable="0" parent="Up8PhnG88JKuGeufV499-50">
          <mxGeometry x="0.0189" y="-1" relative="1" as="geometry">
            <mxPoint as="offset" />
          </mxGeometry>
        </mxCell>
        <mxCell id="Up8PhnG88JKuGeufV499-46" value="racial and economic sorting processes" style="text;html=1;strokeColor=none;fillColor=none;align=center;verticalAlign=middle;whiteSpace=wrap;rounded=0;" vertex="1" parent="1">
          <mxGeometry x="-1200" y="150" width="90" height="30" as="geometry" />
        </mxCell>
        <mxCell id="Up8PhnG88JKuGeufV499-49" value="segregation" style="text;html=1;strokeColor=none;fillColor=none;align=center;verticalAlign=middle;whiteSpace=wrap;rounded=0;" vertex="1" parent="1">
          <mxGeometry x="-1350" y="150" width="90" height="30" as="geometry" />
        </mxCell>
        <mxCell id="Up8PhnG88JKuGeufV499-53" value="house location decisions" style="text;html=1;strokeColor=none;fillColor=none;align=center;verticalAlign=middle;whiteSpace=wrap;rounded=0;" vertex="1" parent="1">
          <mxGeometry x="-1300" y="270" width="160" height="30" as="geometry" />
        </mxCell>
        <mxCell id="Up8PhnG88JKuGeufV499-54" value="housing values" style="text;html=1;strokeColor=none;fillColor=none;align=center;verticalAlign=middle;whiteSpace=wrap;rounded=0;" vertex="1" parent="1">
          <mxGeometry x="-1300" y="310" width="160" height="30" as="geometry" />
        </mxCell>
        <mxCell id="Up8PhnG88JKuGeufV499-57" value="empirical evidence of the formation of segregation" style="text;html=1;strokeColor=none;fillColor=none;align=center;verticalAlign=middle;whiteSpace=wrap;rounded=0;" vertex="1" parent="1">
          <mxGeometry x="-1290" y="460" width="140" height="30" as="geometry" />
        </mxCell>
        <mxCell id="Up8PhnG88JKuGeufV499-60" value="all sales information from 1950 to 2006" style="text;html=1;strokeColor=none;fillColor=none;align=center;verticalAlign=middle;whiteSpace=wrap;rounded=0;" vertex="1" parent="1">
          <mxGeometry x="-1030" y="600" width="60" height="30" as="geometry" />
        </mxCell>
        <mxCell id="Up8PhnG88JKuGeufV499-62" value="ratio composition data from 1970 to 2000" style="text;html=1;strokeColor=none;fillColor=none;align=center;verticalAlign=middle;whiteSpace=wrap;rounded=0;" vertex="1" parent="1">
          <mxGeometry x="-800" y="610" width="180" height="30" as="geometry" />
        </mxCell>
        <mxCell id="Up8PhnG88JKuGeufV499-64" value="Delaware Park" style="text;html=1;strokeColor=none;fillColor=none;align=center;verticalAlign=middle;whiteSpace=wrap;rounded=0;" vertex="1" parent="1">
          <mxGeometry x="-240" y="350" width="140" height="30" as="geometry" />
        </mxCell>
        <mxCell id="Up8PhnG88JKuGeufV499-66" value="black agents" style="text;html=1;strokeColor=none;fillColor=none;align=center;verticalAlign=middle;whiteSpace=wrap;rounded=0;" vertex="1" parent="1">
          <mxGeometry x="-170" y="430" width="140" height="30" as="geometry" />
        </mxCell>
        <mxCell id="Up8PhnG88JKuGeufV499-67" value="white agents" style="text;html=1;strokeColor=none;fillColor=none;align=center;verticalAlign=middle;whiteSpace=wrap;rounded=0;" vertex="1" parent="1">
          <mxGeometry x="-170" y="470" width="140" height="30" as="geometry" />
        </mxCell>
        <mxCell id="Up8PhnG88JKuGeufV499-75" style="edgeStyle=orthogonalEdgeStyle;rounded=0;orthogonalLoop=1;jettySize=auto;html=1;exitX=0;exitY=0.5;exitDx=0;exitDy=0;entryX=1;entryY=0.5;entryDx=0;entryDy=0;strokeWidth=2;" edge="1" parent="1" source="Up8PhnG88JKuGeufV499-70" target="Up8PhnG88JKuGeufV499-71">
          <mxGeometry relative="1" as="geometry" />
        </mxCell>
        <mxCell id="Up8PhnG88JKuGeufV499-76" style="edgeStyle=orthogonalEdgeStyle;rounded=0;orthogonalLoop=1;jettySize=auto;html=1;exitX=1;exitY=0.5;exitDx=0;exitDy=0;entryX=0;entryY=0.5;entryDx=0;entryDy=0;strokeWidth=2;" edge="1" parent="1" source="Up8PhnG88JKuGeufV499-70" target="Up8PhnG88JKuGeufV499-74">
          <mxGeometry relative="1" as="geometry" />
        </mxCell>
        <mxCell id="Up8PhnG88JKuGeufV499-77" style="edgeStyle=orthogonalEdgeStyle;rounded=0;orthogonalLoop=1;jettySize=auto;html=1;exitX=0.5;exitY=0;exitDx=0;exitDy=0;strokeWidth=2;" edge="1" parent="1" source="Up8PhnG88JKuGeufV499-70" target="Up8PhnG88JKuGeufV499-72">
          <mxGeometry relative="1" as="geometry" />
        </mxCell>
        <mxCell id="Up8PhnG88JKuGeufV499-78" style="edgeStyle=orthogonalEdgeStyle;rounded=0;orthogonalLoop=1;jettySize=auto;html=1;exitX=0.5;exitY=1;exitDx=0;exitDy=0;entryX=0.5;entryY=0;entryDx=0;entryDy=0;strokeWidth=2;" edge="1" parent="1" source="Up8PhnG88JKuGeufV499-70" target="Up8PhnG88JKuGeufV499-73">
          <mxGeometry relative="1" as="geometry" />
        </mxCell>
        <mxCell id="Up8PhnG88JKuGeufV499-127" style="edgeStyle=orthogonalEdgeStyle;rounded=0;orthogonalLoop=1;jettySize=auto;html=1;exitX=1;exitY=1;exitDx=0;exitDy=0;strokeWidth=2;" edge="1" parent="1" source="Up8PhnG88JKuGeufV499-70" target="Up8PhnG88JKuGeufV499-126">
          <mxGeometry relative="1" as="geometry" />
        </mxCell>
        <mxCell id="Up8PhnG88JKuGeufV499-70" value="Model Design" style="text;html=1;strokeColor=none;fillColor=none;align=center;verticalAlign=middle;whiteSpace=wrap;rounded=0;" vertex="1" parent="1">
          <mxGeometry x="-1880" y="1320" width="60" height="30" as="geometry" />
        </mxCell>
        <mxCell id="Up8PhnG88JKuGeufV499-80" style="edgeStyle=orthogonalEdgeStyle;rounded=0;orthogonalLoop=1;jettySize=auto;html=1;exitX=0;exitY=0.5;exitDx=0;exitDy=0;entryX=1;entryY=0.5;entryDx=0;entryDy=0;" edge="1" parent="1" source="Up8PhnG88JKuGeufV499-71" target="Up8PhnG88JKuGeufV499-79">
          <mxGeometry relative="1" as="geometry" />
        </mxCell>
        <mxCell id="Up8PhnG88JKuGeufV499-71" value="Actors" style="text;html=1;strokeColor=none;fillColor=none;align=center;verticalAlign=middle;whiteSpace=wrap;rounded=0;" vertex="1" parent="1">
          <mxGeometry x="-2050" y="1320" width="60" height="30" as="geometry" />
        </mxCell>
        <mxCell id="Up8PhnG88JKuGeufV499-94" style="edgeStyle=orthogonalEdgeStyle;rounded=0;orthogonalLoop=1;jettySize=auto;html=1;exitX=0.5;exitY=0;exitDx=0;exitDy=0;" edge="1" parent="1" source="Up8PhnG88JKuGeufV499-72" target="Up8PhnG88JKuGeufV499-93">
          <mxGeometry relative="1" as="geometry" />
        </mxCell>
        <mxCell id="Up8PhnG88JKuGeufV499-103" style="edgeStyle=orthogonalEdgeStyle;rounded=0;orthogonalLoop=1;jettySize=auto;html=1;exitX=0;exitY=0.5;exitDx=0;exitDy=0;entryX=0.5;entryY=1;entryDx=0;entryDy=0;" edge="1" parent="1" source="Up8PhnG88JKuGeufV499-72" target="Up8PhnG88JKuGeufV499-102">
          <mxGeometry relative="1" as="geometry">
            <Array as="points">
              <mxPoint x="-1880" y="1170" />
              <mxPoint x="-2060" y="1170" />
            </Array>
          </mxGeometry>
        </mxCell>
        <mxCell id="Up8PhnG88JKuGeufV499-147" style="edgeStyle=orthogonalEdgeStyle;rounded=0;orthogonalLoop=1;jettySize=auto;html=1;exitX=0;exitY=0.5;exitDx=0;exitDy=0;entryX=1;entryY=0.5;entryDx=0;entryDy=0;" edge="1" parent="1" source="Up8PhnG88JKuGeufV499-72" target="Up8PhnG88JKuGeufV499-146">
          <mxGeometry relative="1" as="geometry" />
        </mxCell>
        <mxCell id="Up8PhnG88JKuGeufV499-72" value="rule" style="text;html=1;strokeColor=none;fillColor=none;align=center;verticalAlign=middle;whiteSpace=wrap;rounded=0;" vertex="1" parent="1">
          <mxGeometry x="-1880" y="1180" width="60" height="30" as="geometry" />
        </mxCell>
        <mxCell id="Up8PhnG88JKuGeufV499-101" style="edgeStyle=orthogonalEdgeStyle;rounded=0;orthogonalLoop=1;jettySize=auto;html=1;exitX=0.5;exitY=1;exitDx=0;exitDy=0;entryX=0.5;entryY=0;entryDx=0;entryDy=0;" edge="1" parent="1" source="Up8PhnG88JKuGeufV499-73" target="Up8PhnG88JKuGeufV499-100">
          <mxGeometry relative="1" as="geometry" />
        </mxCell>
        <mxCell id="Up8PhnG88JKuGeufV499-73" value="behaviours" style="text;html=1;strokeColor=none;fillColor=none;align=center;verticalAlign=middle;whiteSpace=wrap;rounded=0;" vertex="1" parent="1">
          <mxGeometry x="-1880" y="1470" width="60" height="30" as="geometry" />
        </mxCell>
        <mxCell id="Up8PhnG88JKuGeufV499-74" value="patterns" style="text;html=1;strokeColor=none;fillColor=none;align=center;verticalAlign=middle;whiteSpace=wrap;rounded=0;" vertex="1" parent="1">
          <mxGeometry x="-1690" y="1149" width="60" height="30" as="geometry" />
        </mxCell>
        <mxCell id="Up8PhnG88JKuGeufV499-82" value="" style="edgeStyle=orthogonalEdgeStyle;rounded=0;orthogonalLoop=1;jettySize=auto;html=1;" edge="1" parent="1" source="Up8PhnG88JKuGeufV499-79" target="Up8PhnG88JKuGeufV499-81">
          <mxGeometry relative="1" as="geometry" />
        </mxCell>
        <mxCell id="Up8PhnG88JKuGeufV499-85" style="edgeStyle=orthogonalEdgeStyle;rounded=0;orthogonalLoop=1;jettySize=auto;html=1;exitX=0;exitY=0.5;exitDx=0;exitDy=0;" edge="1" parent="1" source="Up8PhnG88JKuGeufV499-79" target="Up8PhnG88JKuGeufV499-84">
          <mxGeometry relative="1" as="geometry">
            <Array as="points">
              <mxPoint x="-2200" y="1335" />
              <mxPoint x="-2200" y="1380" />
            </Array>
          </mxGeometry>
        </mxCell>
        <mxCell id="Up8PhnG88JKuGeufV499-79" value="residential household" style="rounded=0;whiteSpace=wrap;html=1;" vertex="1" parent="1">
          <mxGeometry x="-2180" y="1315" width="100" height="40" as="geometry" />
        </mxCell>
        <mxCell id="Up8PhnG88JKuGeufV499-81" value="renters" style="whiteSpace=wrap;html=1;rounded=0;" vertex="1" parent="1">
          <mxGeometry x="-2338" y="1270" width="120" height="60" as="geometry" />
        </mxCell>
        <mxCell id="Up8PhnG88JKuGeufV499-84" value="homeowners" style="whiteSpace=wrap;html=1;rounded=0;" vertex="1" parent="1">
          <mxGeometry x="-2338" y="1350" width="120" height="60" as="geometry" />
        </mxCell>
        <mxCell id="Up8PhnG88JKuGeufV499-86" value="income" style="whiteSpace=wrap;html=1;rounded=0;" vertex="1" parent="1">
          <mxGeometry x="-2300" y="1450" width="50" height="30" as="geometry" />
        </mxCell>
        <mxCell id="Up8PhnG88JKuGeufV499-87" value="age" style="whiteSpace=wrap;html=1;rounded=0;" vertex="1" parent="1">
          <mxGeometry x="-2240" y="1450" width="50" height="30" as="geometry" />
        </mxCell>
        <mxCell id="Up8PhnG88JKuGeufV499-88" value="family compositions" style="whiteSpace=wrap;html=1;rounded=0;" vertex="1" parent="1">
          <mxGeometry x="-2180" y="1450" width="110" height="30" as="geometry" />
        </mxCell>
        <mxCell id="Up8PhnG88JKuGeufV499-89" value="ability to sense env" style="whiteSpace=wrap;html=1;rounded=0;" vertex="1" parent="1">
          <mxGeometry x="-2180" y="1490" width="110" height="30" as="geometry" />
        </mxCell>
        <mxCell id="Up8PhnG88JKuGeufV499-90" value="socio-ethnic status" style="whiteSpace=wrap;html=1;rounded=0;" vertex="1" parent="1">
          <mxGeometry x="-2300" y="1490" width="110" height="30" as="geometry" />
        </mxCell>
        <mxCell id="Up8PhnG88JKuGeufV499-92" style="edgeStyle=orthogonalEdgeStyle;rounded=0;orthogonalLoop=1;jettySize=auto;html=1;exitX=0.5;exitY=0;exitDx=0;exitDy=0;entryX=0.5;entryY=1;entryDx=0;entryDy=0;" edge="1" parent="1" source="Up8PhnG88JKuGeufV499-91" target="Up8PhnG88JKuGeufV499-79">
          <mxGeometry relative="1" as="geometry" />
        </mxCell>
        <mxCell id="Up8PhnG88JKuGeufV499-91" value="" style="rounded=0;whiteSpace=wrap;html=1;fillColor=none;" vertex="1" parent="1">
          <mxGeometry x="-2310" y="1440" width="250" height="90" as="geometry" />
        </mxCell>
        <mxCell id="Up8PhnG88JKuGeufV499-98" style="edgeStyle=orthogonalEdgeStyle;rounded=0;orthogonalLoop=1;jettySize=auto;html=1;exitX=0.5;exitY=0;exitDx=0;exitDy=0;entryX=0.5;entryY=1;entryDx=0;entryDy=0;" edge="1" parent="1" source="Up8PhnG88JKuGeufV499-93" target="Up8PhnG88JKuGeufV499-96">
          <mxGeometry relative="1" as="geometry" />
        </mxCell>
        <mxCell id="Up8PhnG88JKuGeufV499-99" style="edgeStyle=orthogonalEdgeStyle;rounded=0;orthogonalLoop=1;jettySize=auto;html=1;exitX=0.5;exitY=0;exitDx=0;exitDy=0;entryX=0.5;entryY=1;entryDx=0;entryDy=0;" edge="1" parent="1" source="Up8PhnG88JKuGeufV499-93" target="Up8PhnG88JKuGeufV499-97">
          <mxGeometry relative="1" as="geometry" />
        </mxCell>
        <mxCell id="Up8PhnG88JKuGeufV499-93" value="economic stress" style="rounded=0;whiteSpace=wrap;html=1;" vertex="1" parent="1">
          <mxGeometry x="-1900" y="1024.5" width="100" height="40" as="geometry" />
        </mxCell>
        <mxCell id="Up8PhnG88JKuGeufV499-96" value="leave" style="rounded=0;whiteSpace=wrap;html=1;" vertex="1" parent="1">
          <mxGeometry x="-1960" y="930" width="100" height="40" as="geometry" />
        </mxCell>
        <mxCell id="Up8PhnG88JKuGeufV499-97" value="stay" style="rounded=0;whiteSpace=wrap;html=1;" vertex="1" parent="1">
          <mxGeometry x="-1850" y="930" width="100" height="40" as="geometry" />
        </mxCell>
        <mxCell id="Up8PhnG88JKuGeufV499-106" style="edgeStyle=orthogonalEdgeStyle;rounded=0;orthogonalLoop=1;jettySize=auto;html=1;exitX=0.5;exitY=1;exitDx=0;exitDy=0;" edge="1" parent="1" source="Up8PhnG88JKuGeufV499-100" target="Up8PhnG88JKuGeufV499-104">
          <mxGeometry relative="1" as="geometry" />
        </mxCell>
        <mxCell id="Up8PhnG88JKuGeufV499-107" style="edgeStyle=orthogonalEdgeStyle;rounded=0;orthogonalLoop=1;jettySize=auto;html=1;exitX=0.5;exitY=1;exitDx=0;exitDy=0;entryX=0.5;entryY=0;entryDx=0;entryDy=0;" edge="1" parent="1" source="Up8PhnG88JKuGeufV499-100" target="Up8PhnG88JKuGeufV499-105">
          <mxGeometry relative="1" as="geometry" />
        </mxCell>
        <mxCell id="Up8PhnG88JKuGeufV499-109" style="edgeStyle=orthogonalEdgeStyle;rounded=0;orthogonalLoop=1;jettySize=auto;html=1;exitX=0.5;exitY=1;exitDx=0;exitDy=0;" edge="1" parent="1" source="Up8PhnG88JKuGeufV499-100" target="Up8PhnG88JKuGeufV499-108">
          <mxGeometry relative="1" as="geometry" />
        </mxCell>
        <mxCell id="Up8PhnG88JKuGeufV499-100" value="relocation" style="rounded=0;whiteSpace=wrap;html=1;" vertex="1" parent="1">
          <mxGeometry x="-2000" y="1550" width="100" height="40" as="geometry" />
        </mxCell>
        <mxCell id="Up8PhnG88JKuGeufV499-102" value="20 steps (1s: 1y)" style="rounded=0;whiteSpace=wrap;html=1;" vertex="1" parent="1">
          <mxGeometry x="-2110" y="1020" width="100" height="40" as="geometry" />
        </mxCell>
        <mxCell id="Up8PhnG88JKuGeufV499-104" value="selling" style="rounded=0;whiteSpace=wrap;html=1;" vertex="1" parent="1">
          <mxGeometry x="-2070" y="1620" width="100" height="40" as="geometry" />
        </mxCell>
        <mxCell id="Up8PhnG88JKuGeufV499-105" value="buying" style="rounded=0;whiteSpace=wrap;html=1;" vertex="1" parent="1">
          <mxGeometry x="-1950" y="1620" width="100" height="40" as="geometry" />
        </mxCell>
        <mxCell id="Up8PhnG88JKuGeufV499-108" value="evaluating" style="rounded=0;whiteSpace=wrap;html=1;" vertex="1" parent="1">
          <mxGeometry x="-1840" y="1630" width="100" height="40" as="geometry" />
        </mxCell>
        <mxCell id="Up8PhnG88JKuGeufV499-124" style="edgeStyle=orthogonalEdgeStyle;rounded=0;orthogonalLoop=1;jettySize=auto;html=1;exitX=1;exitY=0.5;exitDx=0;exitDy=0;" edge="1" parent="1" source="Up8PhnG88JKuGeufV499-74" target="Up8PhnG88JKuGeufV499-122">
          <mxGeometry relative="1" as="geometry">
            <mxPoint x="-1350.0000000000005" y="1164" as="sourcePoint" />
            <Array as="points" />
          </mxGeometry>
        </mxCell>
        <mxCell id="Up8PhnG88JKuGeufV499-132" style="edgeStyle=orthogonalEdgeStyle;rounded=0;orthogonalLoop=1;jettySize=auto;html=1;exitX=1;exitY=0.5;exitDx=0;exitDy=0;entryX=0;entryY=0.5;entryDx=0;entryDy=0;" edge="1" parent="1" source="Up8PhnG88JKuGeufV499-122" target="Up8PhnG88JKuGeufV499-131">
          <mxGeometry relative="1" as="geometry" />
        </mxCell>
        <mxCell id="Up8PhnG88JKuGeufV499-122" value="gentrification" style="rounded=0;whiteSpace=wrap;html=1;" vertex="1" parent="1">
          <mxGeometry x="-1590" y="1144" width="100" height="40" as="geometry" />
        </mxCell>
        <mxCell id="Up8PhnG88JKuGeufV499-130" style="edgeStyle=orthogonalEdgeStyle;rounded=0;orthogonalLoop=1;jettySize=auto;html=1;exitX=1;exitY=0.5;exitDx=0;exitDy=0;entryX=0;entryY=0.5;entryDx=0;entryDy=0;" edge="1" parent="1" source="Up8PhnG88JKuGeufV499-126" target="Up8PhnG88JKuGeufV499-129">
          <mxGeometry relative="1" as="geometry" />
        </mxCell>
        <mxCell id="Up8PhnG88JKuGeufV499-126" value="scenarios" style="text;html=1;strokeColor=none;fillColor=none;align=center;verticalAlign=middle;whiteSpace=wrap;rounded=0;" vertex="1" parent="1">
          <mxGeometry x="-1690" y="1410" width="60" height="30" as="geometry" />
        </mxCell>
        <mxCell id="Up8PhnG88JKuGeufV499-129" value="Different types of gentrifiers based on their characteristics" style="rounded=0;whiteSpace=wrap;html=1;" vertex="1" parent="1">
          <mxGeometry x="-1590" y="1450" width="140" height="40" as="geometry" />
        </mxCell>
        <mxCell id="Up8PhnG88JKuGeufV499-131" value="people go away" style="rounded=0;whiteSpace=wrap;html=1;" vertex="1" parent="1">
          <mxGeometry x="-1450" y="1144" width="100" height="40" as="geometry" />
        </mxCell>
        <mxCell id="Up8PhnG88JKuGeufV499-136" style="edgeStyle=orthogonalEdgeStyle;rounded=0;orthogonalLoop=1;jettySize=auto;html=1;exitX=1;exitY=0.5;exitDx=0;exitDy=0;" edge="1" source="Up8PhnG88JKuGeufV499-137" target="Up8PhnG88JKuGeufV499-142" parent="1">
          <mxGeometry relative="1" as="geometry" />
        </mxCell>
        <mxCell id="Up8PhnG88JKuGeufV499-137" value="household" style="rounded=0;whiteSpace=wrap;html=1;" vertex="1" parent="1">
          <mxGeometry x="-2420" y="945.5" width="100" height="40" as="geometry" />
        </mxCell>
        <mxCell id="Up8PhnG88JKuGeufV499-138" style="edgeStyle=orthogonalEdgeStyle;rounded=0;orthogonalLoop=1;jettySize=auto;html=1;exitX=1;exitY=0.5;exitDx=0;exitDy=0;entryX=0;entryY=0.5;entryDx=0;entryDy=0;" edge="1" source="Up8PhnG88JKuGeufV499-139" target="Up8PhnG88JKuGeufV499-143" parent="1">
          <mxGeometry relative="1" as="geometry" />
        </mxCell>
        <mxCell id="Up8PhnG88JKuGeufV499-139" value="property" style="rounded=0;whiteSpace=wrap;html=1;" vertex="1" parent="1">
          <mxGeometry x="-2420" y="1019.5" width="100" height="40" as="geometry" />
        </mxCell>
        <mxCell id="Up8PhnG88JKuGeufV499-140" style="edgeStyle=orthogonalEdgeStyle;rounded=0;orthogonalLoop=1;jettySize=auto;html=1;exitX=1;exitY=0.5;exitDx=0;exitDy=0;entryX=0;entryY=0.5;entryDx=0;entryDy=0;" edge="1" source="Up8PhnG88JKuGeufV499-141" target="Up8PhnG88JKuGeufV499-144" parent="1">
          <mxGeometry relative="1" as="geometry" />
        </mxCell>
        <mxCell id="Up8PhnG88JKuGeufV499-141" value="neighbourhood" style="rounded=0;whiteSpace=wrap;html=1;" vertex="1" parent="1">
          <mxGeometry x="-2420" y="1094.5" width="100" height="40" as="geometry" />
        </mxCell>
        <mxCell id="Up8PhnG88JKuGeufV499-142" value="economic aspects" style="rounded=0;whiteSpace=wrap;html=1;" vertex="1" parent="1">
          <mxGeometry x="-2280" y="945.5" width="100" height="40" as="geometry" />
        </mxCell>
        <mxCell id="Up8PhnG88JKuGeufV499-143" value="intrinsic characteristics" style="rounded=0;whiteSpace=wrap;html=1;" vertex="1" parent="1">
          <mxGeometry x="-2280" y="1019.5" width="100" height="40" as="geometry" />
        </mxCell>
        <mxCell id="Up8PhnG88JKuGeufV499-144" value="extrinsic quality" style="rounded=0;whiteSpace=wrap;html=1;" vertex="1" parent="1">
          <mxGeometry x="-2280" y="1094.5" width="100" height="40" as="geometry" />
        </mxCell>
        <mxCell id="Up8PhnG88JKuGeufV499-149" style="edgeStyle=orthogonalEdgeStyle;rounded=0;orthogonalLoop=1;jettySize=auto;html=1;exitX=0;exitY=0.5;exitDx=0;exitDy=0;" edge="1" parent="1" source="Up8PhnG88JKuGeufV499-146" target="Up8PhnG88JKuGeufV499-148">
          <mxGeometry relative="1" as="geometry" />
        </mxCell>
        <mxCell id="Up8PhnG88JKuGeufV499-146" value="choice" style="rounded=0;whiteSpace=wrap;html=1;" vertex="1" parent="1">
          <mxGeometry x="-2240" y="1160" width="100" height="40" as="geometry" />
        </mxCell>
        <mxCell id="Up8PhnG88JKuGeufV499-148" value="" style="rounded=0;whiteSpace=wrap;html=1;fillColor=none;" vertex="1" parent="1">
          <mxGeometry x="-2450" y="930" width="290" height="220" as="geometry" />
        </mxCell>
        <mxCell id="Up8PhnG88JKuGeufV499-150" value="income" style="rounded=0;whiteSpace=wrap;html=1;" vertex="1" parent="1">
          <mxGeometry x="-1900" y="1110" width="100" height="40" as="geometry" />
        </mxCell>
        <mxCell id="Up8PhnG88JKuGeufV499-153" style="edgeStyle=orthogonalEdgeStyle;rounded=0;orthogonalLoop=1;jettySize=auto;html=1;exitX=1;exitY=0.5;exitDx=0;exitDy=0;entryX=0;entryY=0.5;entryDx=0;entryDy=0;" edge="1" parent="1" source="Up8PhnG88JKuGeufV499-151" target="Up8PhnG88JKuGeufV499-152">
          <mxGeometry relative="1" as="geometry" />
        </mxCell>
        <mxCell id="Up8PhnG88JKuGeufV499-155" style="edgeStyle=orthogonalEdgeStyle;rounded=0;orthogonalLoop=1;jettySize=auto;html=1;exitX=1;exitY=0.5;exitDx=0;exitDy=0;entryX=0;entryY=0.5;entryDx=0;entryDy=0;" edge="1" parent="1" source="Up8PhnG88JKuGeufV499-151" target="Up8PhnG88JKuGeufV499-154">
          <mxGeometry relative="1" as="geometry" />
        </mxCell>
        <mxCell id="Up8PhnG88JKuGeufV499-157" style="edgeStyle=orthogonalEdgeStyle;rounded=0;orthogonalLoop=1;jettySize=auto;html=1;exitX=1;exitY=0.5;exitDx=0;exitDy=0;entryX=0;entryY=0.5;entryDx=0;entryDy=0;" edge="1" parent="1" source="Up8PhnG88JKuGeufV499-151" target="Up8PhnG88JKuGeufV499-156">
          <mxGeometry relative="1" as="geometry" />
        </mxCell>
        <mxCell id="Up8PhnG88JKuGeufV499-160" style="edgeStyle=orthogonalEdgeStyle;rounded=0;orthogonalLoop=1;jettySize=auto;html=1;exitX=1;exitY=0.5;exitDx=0;exitDy=0;entryX=0;entryY=0.5;entryDx=0;entryDy=0;" edge="1" parent="1" source="Up8PhnG88JKuGeufV499-151" target="Up8PhnG88JKuGeufV499-159">
          <mxGeometry relative="1" as="geometry" />
        </mxCell>
        <mxCell id="Up8PhnG88JKuGeufV499-151" value="ABM and segregation" style="text;html=1;strokeColor=none;fillColor=none;align=center;verticalAlign=middle;whiteSpace=wrap;rounded=0;" vertex="1" parent="1">
          <mxGeometry x="-3370" y="2120" width="60" height="30" as="geometry" />
        </mxCell>
        <mxCell id="Up8PhnG88JKuGeufV499-161" style="edgeStyle=orthogonalEdgeStyle;rounded=0;orthogonalLoop=1;jettySize=auto;html=1;exitX=1;exitY=0.5;exitDx=0;exitDy=0;entryX=0;entryY=0.5;entryDx=0;entryDy=0;" edge="1" parent="1" source="Up8PhnG88JKuGeufV499-152" target="Up8PhnG88JKuGeufV499-158">
          <mxGeometry relative="1" as="geometry" />
        </mxCell>
        <mxCell id="Up8PhnG88JKuGeufV499-152" value="hypo 1: Physical env variable and segregation" style="text;html=1;strokeColor=none;fillColor=none;align=left;verticalAlign=middle;whiteSpace=wrap;rounded=0;" vertex="1" parent="1">
          <mxGeometry x="-3240" y="2000" width="250" height="30" as="geometry" />
        </mxCell>
        <mxCell id="Up8PhnG88JKuGeufV499-163" style="edgeStyle=orthogonalEdgeStyle;rounded=0;orthogonalLoop=1;jettySize=auto;html=1;exitX=1;exitY=0.5;exitDx=0;exitDy=0;" edge="1" parent="1" source="Up8PhnG88JKuGeufV499-154" target="Up8PhnG88JKuGeufV499-162">
          <mxGeometry relative="1" as="geometry" />
        </mxCell>
        <mxCell id="Up8PhnG88JKuGeufV499-154" value="hypo 2: Socioeconomic variable and segregation" style="text;html=1;strokeColor=none;fillColor=none;align=left;verticalAlign=middle;whiteSpace=wrap;rounded=0;" vertex="1" parent="1">
          <mxGeometry x="-3240" y="2120" width="270" height="30" as="geometry" />
        </mxCell>
        <mxCell id="Up8PhnG88JKuGeufV499-156" value="hypo 3: Microlevel variables and segregation" style="text;html=1;strokeColor=none;fillColor=none;align=left;verticalAlign=middle;whiteSpace=wrap;rounded=0;" vertex="1" parent="1">
          <mxGeometry x="-3240" y="2220" width="280" height="30" as="geometry" />
        </mxCell>
        <mxCell id="Up8PhnG88JKuGeufV499-158" value="paper_id claims that green space development and housing price generates gentrification" style="text;html=1;strokeColor=default;fillColor=none;align=left;verticalAlign=middle;whiteSpace=wrap;rounded=0;" vertex="1" parent="1">
          <mxGeometry x="-2900" y="1970" width="360" height="30" as="geometry" />
        </mxCell>
        <mxCell id="Up8PhnG88JKuGeufV499-159" value="hypo 4: Mix variables and segregation" style="text;html=1;strokeColor=none;fillColor=none;align=left;verticalAlign=middle;whiteSpace=wrap;rounded=0;" vertex="1" parent="1">
          <mxGeometry x="-3240" y="2300" width="280" height="30" as="geometry" />
        </mxCell>
        <mxCell id="Up8PhnG88JKuGeufV499-162" value="wos_88 claims that racial and economic composition generate segregation" style="text;html=1;strokeColor=default;fillColor=none;align=left;verticalAlign=middle;whiteSpace=wrap;rounded=0;" vertex="1" parent="1">
          <mxGeometry x="-2900" y="2120" width="360" height="30" as="geometry" />
        </mxCell>
        <mxCell id="Up8PhnG88JKuGeufV499-164" value="&lt;span style=&quot;font-size: 10px;&quot;&gt;&lt;font color=&quot;#666666&quot;&gt;Simply a pure criteria of economic status to decide the move behaviour ignores the place attachment, family ties etc.&lt;/font&gt;&lt;/span&gt;" style="shape=callout;whiteSpace=wrap;html=1;perimeter=calloutPerimeter;position2=0;size=10;position=0.4;base=20;dashed=1;dashPattern=1 1;strokeColor=#4D4D4D;opacity=50;" vertex="1" parent="1">
          <mxGeometry x="-1790" y="1004" width="200" height="55.5" as="geometry" />
        </mxCell>
        <mxCell id="Up8PhnG88JKuGeufV499-165" value="&lt;span style=&quot;font-size: 10px;&quot;&gt;&lt;font color=&quot;#666666&quot;&gt;one step to segregation, the behaviour as the outcome to analysis&lt;/font&gt;&lt;/span&gt;" style="shape=callout;whiteSpace=wrap;html=1;perimeter=calloutPerimeter;position2=0;size=10;position=0.4;base=20;dashed=1;dashPattern=1 1;strokeColor=#4D4D4D;opacity=50;" vertex="1" parent="1">
          <mxGeometry x="-1420" y="1088.5" width="200" height="55.5" as="geometry" />
        </mxCell>
      </root>
    </mxGraphModel>
  </diagram>
</mxfile>
